<svg width="79" height="63" viewBox="0 0 79 63" fill="none" xmlns="http://www.w3.org/2000/svg">
<path fill-rule="evenodd" clip-rule="evenodd" d="M69.71 0.655995H9.45886C4.68149 0.655995 0.851318 3.75186 0.851318 7.5357V55.6937C0.851318 59.4772 4.68149 62.5734 9.45886 62.5734H69.71C74.4443 62.5734 78.3176 59.4772 78.3176 55.6937V7.5357C78.3176 3.75186 74.4443 0.655995 69.71 0.655995ZM44.0111 18.5794C47.2573 18.5794 49.9133 16.6242 49.9133 14.2344C49.9133 11.8446 47.2573 9.8893 44.0111 9.8893C40.7649 9.8893 38.1089 11.8446 38.1089 14.2344C38.1089 16.6242 40.7649 18.5794 44.0111 18.5794ZM44.0111 18.5794C48.0047 18.5794 55.8155 19.9872 55.8155 23.2461V25.0971H32.2067V23.2461C32.2067 19.9872 40.0175 18.5794 44.0111 18.5794ZM29.2556 26.1833C29.2556 29.1706 26.5996 31.6147 23.3534 31.6147C20.1072 31.6147 17.4512 29.1706 17.4512 26.1833C17.4512 23.1961 20.1072 20.752 23.3534 20.752C26.5996 20.752 29.2556 23.1961 29.2556 26.1833ZM26.3045 26.1833C26.3045 24.391 24.9765 22.9245 23.3534 22.9245C21.7303 22.9245 20.4023 24.391 20.4023 26.1833C20.4023 27.9757 21.7303 29.4422 23.3534 29.4422C24.9765 29.4422 26.3045 27.9757 26.3045 26.1833ZM35.1578 37.8368C35.1578 33.4917 27.347 31.6147 23.3534 31.6147C19.3598 31.6147 11.549 33.4917 11.549 37.8368V40.3049H35.1578V37.8368ZM23.3534 33.7872C20.1089 33.7872 16.3616 35.9163 14.5001 38.1323H32.2067C30.3452 35.9163 26.5979 33.7872 23.3534 33.7872ZM49.9133 40.3049C54.7826 40.3049 58.7666 37.3719 58.7666 33.7872C58.7666 30.2026 54.7826 27.2696 49.9133 27.2696C45.044 27.2696 41.06 30.2026 41.06 33.7872C41.06 37.3719 45.044 40.3049 49.9133 40.3049ZM49.9133 40.3049C55.904 40.3049 67.6198 42.6512 67.6198 48.0826V51.1676H32.2067V48.0826C32.2067 42.6512 43.9226 40.3049 49.9133 40.3049ZM55.8155 33.7872C55.8155 31.3974 53.1595 29.4422 49.9133 29.4422C46.6671 29.4422 44.0111 31.3974 44.0111 33.7872C44.0111 36.177 46.6671 38.1323 49.9133 38.1323C53.1595 38.1323 55.8155 36.177 55.8155 33.7872ZM49.9133 42.4774C44.506 42.4774 38.2599 45.671 35.1578 48.995H64.6688C61.5667 45.671 55.3206 42.4774 49.9133 42.4774ZM46.9622 14.2344C46.9622 13.0395 45.6342 12.0618 44.0111 12.0618C42.388 12.0618 41.06 13.0395 41.06 14.2344C41.06 15.4292 42.388 16.4069 44.0111 16.4069C45.6342 16.4069 46.9622 15.4292 46.9622 14.2344ZM44.0111 20.752C40.7666 20.752 37.0193 21.8165 35.1578 22.9245H52.8644C51.0029 21.8165 47.2556 20.752 44.0111 20.752ZM9.45886 55.6937H69.7106V7.5357H9.45886V55.6937Z" fill="#ED9240"/>
</svg>
