<svg width="150" height="58" viewBox="0 0 150 58" fill="none" xmlns="http://www.w3.org/2000/svg">
<path d="M126.111 14.1157V14.5259H126.522V14.1157H126.111ZM114.706 14.1157H114.294V14.5259H114.706V14.1157ZM104.726 20.3114H104.315V20.7216H104.726V20.3114ZM116.131 20.3114V20.7216H116.543V20.3114H116.131ZM106.152 19.4263L105.86 19.1372L105.164 19.8364H106.152V19.4263ZM114.706 19.4263V19.8364H115.694L114.997 19.1372L114.706 19.4263ZM131.813 24.7369V25.1471H132.225V24.7369H131.813ZM114.706 24.7369H114.294V25.1471H114.706V24.7369ZM116.131 23.8518L115.855 23.5478L115.065 24.262H116.131V23.8518ZM130.388 23.8518V24.262H131.454L130.664 23.5478L130.388 23.8518ZM116.131 13.2306L115.946 12.8642L116.131 13.6407V13.2306ZM124.685 13.2306V13.6407L124.87 12.8642L124.685 13.2306ZM132.823 26.5809V26.991H133.235V26.5809H132.823ZM103.716 26.5809H103.305V26.991H103.716V26.5809ZM132.823 6.96111H133.235V6.55094H132.823V6.96111ZM103.716 6.96111V6.55094H103.305V6.96111H103.716ZM103.716 4.56846H132.823V3.74812H103.716V4.56846ZM99.9695 6.96111C99.9695 6.36691 100.326 5.77879 101.003 5.32109C101.677 4.86504 102.633 4.56846 103.716 4.56846V3.74812C102.491 3.74812 101.369 4.08219 100.541 4.64215C99.7156 5.20048 99.147 6.01376 99.147 6.96111H99.9695ZM99.9695 26.5809V6.96111H99.147V26.5809H99.9695ZM103.716 28.9735C102.633 28.9735 101.677 28.6768 101.003 28.221C100.326 27.7632 99.9695 27.1751 99.9695 26.5809H99.147C99.147 27.5283 99.7156 28.3416 100.541 28.8999C101.369 29.4597 102.491 29.7938 103.716 29.7938V28.9735ZM132.823 28.9735H103.716V29.7938H132.823V28.9735ZM136.57 26.5809C136.57 27.1734 136.21 27.7619 135.53 28.2204C134.852 28.6771 133.895 28.9735 132.823 28.9735V29.7938C134.038 29.7938 135.16 29.4594 135.99 28.9002C136.817 28.3429 137.392 27.53 137.392 26.5809H136.57ZM136.57 6.96111V26.5809H137.392V6.96111H136.57ZM132.823 4.56846C133.895 4.56846 134.852 4.86474 135.53 5.32145C136.21 5.78021 136.57 6.36861 136.57 6.96111H137.392C137.392 6.01206 136.817 5.19905 135.99 4.64177C135.16 4.08247 134.038 3.74812 132.823 3.74812V4.56846ZM122.848 9.69018C122.848 9.98263 122.654 10.3133 122.204 10.5922C121.762 10.8668 121.127 11.0502 120.408 11.0502V11.8705C121.257 11.8705 122.048 11.6557 122.639 11.2886C123.224 10.9257 123.671 10.3713 123.671 9.69018H122.848ZM120.408 8.33015C121.127 8.33015 121.762 8.5136 122.204 8.7882C122.654 9.067 122.848 9.39771 122.848 9.69018H123.671C123.671 9.00903 123.224 8.45465 122.639 8.09176C122.048 7.72466 121.257 7.50981 120.408 7.50981V8.33015ZM117.968 9.69018C117.968 9.39771 118.163 9.067 118.612 8.7882C119.054 8.5136 119.689 8.33015 120.408 8.33015V7.50981C119.559 7.50981 118.768 7.72466 118.177 8.09176C117.593 8.45465 117.146 9.00903 117.146 9.69018H117.968ZM120.408 11.0502C119.689 11.0502 119.054 10.8668 118.612 10.5922C118.163 10.3133 117.968 9.98263 117.968 9.69018H117.146C117.146 10.3713 117.593 10.9257 118.177 11.2886C118.768 11.6557 119.559 11.8705 120.408 11.8705V11.0502ZM126.522 13.3616C126.522 12.8139 126.132 12.4217 125.71 12.1571C125.274 11.8843 124.696 11.6754 124.087 11.5163C122.864 11.1969 121.403 11.0502 120.408 11.0502V11.8705C121.343 11.8705 122.733 12.0107 123.879 12.3099C124.454 12.4602 124.94 12.6435 125.272 12.8518C125.618 13.0681 125.699 13.2454 125.699 13.3616H126.522ZM126.522 14.1157V13.3616H125.699V14.1157H126.522ZM114.706 14.5259H126.111V13.7055H114.706V14.5259ZM114.294 13.3616V14.1157H115.117V13.3616H114.294ZM120.408 11.0502C119.414 11.0502 117.953 11.1969 116.729 11.5163C116.12 11.6754 115.542 11.8843 115.107 12.1571C114.684 12.4217 114.294 12.8139 114.294 13.3616H115.117C115.117 13.2454 115.199 13.0681 115.544 12.8518C115.877 12.6435 116.362 12.4602 116.938 12.3099C118.083 12.0107 119.474 11.8705 120.408 11.8705V11.0502ZM110.429 17.1812C112.122 17.1812 113.691 16.0916 113.691 14.5582H112.869C112.869 15.4589 111.872 16.3608 110.429 16.3608V17.1812ZM107.166 14.5582C107.166 16.0916 108.735 17.1812 110.429 17.1812V16.3608C108.986 16.3608 107.989 15.4589 107.989 14.5582H107.166ZM110.429 11.9353C108.735 11.9353 107.166 13.0249 107.166 14.5582H107.989C107.989 13.6576 108.986 12.7556 110.429 12.7556V11.9353ZM113.691 14.5582C113.691 13.0249 112.122 11.9353 110.429 11.9353V12.7556C111.872 12.7556 112.869 13.6576 112.869 14.5582H113.691ZM110.429 13.6407C111.013 13.6407 111.443 14.0806 111.443 14.5582H112.266C112.266 13.5754 111.413 12.8204 110.429 12.8204V13.6407ZM109.414 14.5582C109.414 14.0806 109.845 13.6407 110.429 13.6407V12.8204C109.444 12.8204 108.592 13.5754 108.592 14.5582H109.414ZM110.429 15.4757C109.845 15.4757 109.414 15.0359 109.414 14.5582H108.592C108.592 15.541 109.444 16.2961 110.429 16.2961V15.4757ZM111.443 14.5582C111.443 15.0359 111.013 15.4757 110.429 15.4757V16.2961C111.413 16.2961 112.266 15.541 112.266 14.5582H111.443ZM110.429 17.1812C111.353 17.1812 112.732 17.3664 113.868 17.7619C114.437 17.9599 114.917 18.2014 115.248 18.4775C115.575 18.7511 115.72 19.0258 115.72 19.3059H116.543C116.543 18.7009 116.216 18.2162 115.776 17.8486C115.338 17.4834 114.755 17.2018 114.139 16.9874C112.906 16.558 111.434 16.3608 110.429 16.3608V17.1812ZM105.137 19.3059C105.137 19.0258 105.282 18.7511 105.61 18.4775C105.94 18.2014 106.421 17.9599 106.989 17.7619C108.125 17.3664 109.505 17.1812 110.429 17.1812V16.3608C109.424 16.3608 107.951 16.558 106.718 16.9874C106.103 17.2018 105.519 17.4834 105.082 17.8486C104.642 18.2162 104.315 18.7009 104.315 19.3059H105.137ZM105.137 20.3114V19.3059H104.315V20.3114H105.137ZM116.131 19.9012H104.726V20.7216H116.131V19.9012ZM115.72 19.3059V20.3114H116.543V19.3059H115.72ZM106.444 19.7153C106.848 19.309 107.478 18.893 108.204 18.5788C108.928 18.265 109.716 18.0662 110.429 18.0662V17.2459C109.574 17.2459 108.673 17.4808 107.876 17.8264C107.079 18.1717 106.354 18.6408 105.86 19.1372L106.444 19.7153ZM114.706 19.0161H106.152V19.8364H114.706V19.0161ZM110.429 18.0662C111.142 18.0662 111.93 18.265 112.654 18.5788C113.379 18.893 114.009 19.309 114.414 19.7153L114.997 19.1372C114.503 18.6408 113.778 18.1717 112.982 17.8264C112.184 17.4808 111.283 17.2459 110.429 17.2459V18.0662ZM127.125 17.6561C127.125 18.192 126.77 18.7439 126.063 19.1832C125.362 19.6182 124.371 19.9012 123.259 19.9012V20.7216C124.501 20.7216 125.648 20.4071 126.497 19.8796C127.34 19.3563 127.948 18.5806 127.948 17.6561H127.125ZM123.259 15.4109C124.371 15.4109 125.362 15.694 126.063 16.129C126.77 16.5682 127.125 17.1202 127.125 17.6561H127.948C127.948 16.7316 127.34 15.9559 126.497 15.4325C125.648 14.905 124.501 14.5906 123.259 14.5906V15.4109ZM119.394 17.6561C119.394 17.1202 119.749 16.5682 120.456 16.129C121.157 15.694 122.148 15.4109 123.259 15.4109V14.5906C122.018 14.5906 120.871 14.905 120.022 15.4325C119.179 15.9559 118.571 16.7316 118.571 17.6561H119.394ZM123.259 19.9012C122.148 19.9012 121.157 19.6182 120.456 19.1832C119.749 18.7439 119.394 18.192 119.394 17.6561H118.571C118.571 18.5806 119.179 19.3563 120.022 19.8796C120.871 20.4071 122.018 20.7216 123.259 20.7216V19.9012ZM132.225 23.4801C132.225 22.7316 131.743 22.1492 131.119 21.7151C130.49 21.2776 129.644 20.9354 128.737 20.6721C126.918 20.1443 124.74 19.9012 123.259 19.9012V20.7216C124.673 20.7216 126.772 20.9565 128.507 21.4598C129.376 21.712 130.125 22.0238 130.648 22.3878C131.176 22.7553 131.402 23.1221 131.402 23.4801H132.225ZM132.225 24.7369V23.4801H131.402V24.7369H132.225ZM114.706 25.1471H131.813V24.3267H114.706V25.1471ZM114.294 23.4801V24.7369H115.117V23.4801H114.294ZM123.259 19.9012C121.779 19.9012 119.601 20.1443 117.782 20.6721C116.875 20.9354 116.028 21.2776 115.4 21.7151C114.776 22.1492 114.294 22.7316 114.294 23.4801H115.117C115.117 23.1221 115.342 22.7553 115.871 22.3878C116.394 22.0238 117.143 21.712 118.012 21.4598C119.747 20.9565 121.846 20.7216 123.259 20.7216V19.9012ZM123.259 16.2961C123.979 16.2961 124.614 16.4795 125.056 16.7541C125.505 17.0329 125.699 17.3636 125.699 17.6561H126.522C126.522 16.9749 126.075 16.4205 125.491 16.0577C124.899 15.6906 124.109 15.4757 123.259 15.4757V16.2961ZM120.819 17.6561C120.819 17.3636 121.014 17.0329 121.463 16.7541C121.905 16.4795 122.54 16.2961 123.259 16.2961V15.4757C122.41 15.4757 121.62 15.6906 121.028 16.0577C120.444 16.4205 119.997 16.9749 119.997 17.6561H120.819ZM123.259 19.0161C122.54 19.0161 121.905 18.8327 121.463 18.5581C121.014 18.2793 120.819 17.9486 120.819 17.6561H119.997C119.997 18.3372 120.444 18.8916 121.028 19.2545C121.62 19.6216 122.41 19.8364 123.259 19.8364V19.0161ZM125.699 17.6561C125.699 17.9486 125.505 18.2793 125.056 18.5581C124.614 18.8327 123.979 19.0161 123.259 19.0161V19.8364C124.109 19.8364 124.899 19.6216 125.491 19.2545C126.075 18.8916 126.522 18.3372 126.522 17.6561H125.699ZM116.407 24.1557C117.11 23.5206 118.192 22.88 119.427 22.3983C120.661 21.9173 122.017 21.6067 123.259 21.6067V20.7863C121.89 20.7863 120.431 21.1262 119.128 21.6343C117.827 22.1418 116.651 22.8288 115.855 23.5478L116.407 24.1557ZM130.388 23.4416H116.131V24.262H130.388V23.4416ZM123.259 21.6067C124.502 21.6067 125.858 21.9173 127.091 22.3983C128.326 22.88 129.409 23.5206 130.112 24.1557L130.664 23.5478C129.868 22.8288 128.692 22.1418 127.391 21.6343C126.088 21.1262 124.629 20.7863 123.259 20.7863V21.6067ZM120.408 9.21524C120.735 9.21524 121.014 9.29913 121.198 9.41329C121.388 9.53167 121.423 9.6411 121.423 9.69018H122.245C122.245 9.25242 121.959 8.91931 121.632 8.71685C121.299 8.51018 120.865 8.3949 120.408 8.3949V9.21524ZM119.394 9.69018C119.394 9.6411 119.428 9.53167 119.619 9.41329C119.803 9.29913 120.081 9.21524 120.408 9.21524V8.3949C119.951 8.3949 119.517 8.51018 119.184 8.71685C118.858 8.91931 118.571 9.25242 118.571 9.69018H119.394ZM120.408 10.1651C120.081 10.1651 119.803 10.0812 119.619 9.96705C119.428 9.84867 119.394 9.73924 119.394 9.69018H118.571C118.571 10.1279 118.858 10.461 119.184 10.6635C119.517 10.8702 119.951 10.9854 120.408 10.9854V10.1651ZM121.423 9.69018C121.423 9.73924 121.388 9.84867 121.198 9.96705C121.014 10.0812 120.735 10.1651 120.408 10.1651V10.9854C120.865 10.9854 121.299 10.8702 121.632 10.6635C121.959 10.461 122.245 10.1279 122.245 9.69018H121.423ZM116.316 13.597C117.149 13.179 118.894 12.7556 120.408 12.7556V11.9353C118.788 11.9353 116.912 12.3793 115.946 12.8642L116.316 13.597ZM124.685 12.8204H116.131V13.6407H124.685V12.8204ZM120.408 12.7556C121.923 12.7556 123.668 13.179 124.5 13.597L124.87 12.8642C123.904 12.3793 122.028 11.9353 120.408 11.9353V12.7556ZM132.823 26.1707H103.716V26.991H132.823V26.1707ZM132.412 6.96111V26.5809H133.235V6.96111H132.412ZM103.716 7.37128H132.823V6.55094H103.716V7.37128ZM104.128 26.5809V6.96111H103.305V26.5809H104.128Z" fill="#120B05"/>
<path d="M8.87944 50.5415L8.14329 50.1757L7.55066 51.3619H8.87944V50.5415ZM19.8042 28.6746V27.8543H19.2951L19.0681 28.3088L19.8042 28.6746ZM27.1495 28.6746L27.8862 28.3098L27.6595 27.8543H27.1495V28.6746ZM38.037 50.5415V51.3619H39.3637L38.7737 50.1768L38.037 50.5415ZM32.295 50.5415L31.549 50.8872L31.7702 51.3619H32.295V50.5415ZM30.0951 45.8186L30.8411 45.4729L30.6199 44.9982H30.0951V45.8186ZM16.7468 45.8186V44.9982H16.2438L16.0146 45.4448L16.7468 45.8186ZM14.3232 50.5415V51.3619H14.8262L15.0553 50.9153L14.3232 50.5415ZM18.0891 42.1741L17.355 41.8041L16.7517 42.9944H18.0891V42.1741ZM28.7155 42.1741V42.9944H30.0485L29.4506 41.806L28.7155 42.1741ZM23.6074 32.0216L24.3425 31.6535L24.1149 31.2013H23.6074V32.0216ZM23.2345 32.0216V31.2013H22.7287L22.5005 31.6516L23.2345 32.0216ZM9.61561 50.9074L20.5404 29.0405L19.0681 28.3088L8.14329 50.1757L9.61561 50.9074ZM19.8042 29.495H27.1495V27.8543H19.8042V29.495ZM26.4129 29.0394L37.3003 50.9063L38.7737 50.1768L27.8862 28.3098L26.4129 29.0394ZM38.037 49.7212H32.295V51.3619H38.037V49.7212ZM33.041 50.1959L30.8411 45.4729L29.3491 46.1642L31.549 50.8872L33.041 50.1959ZM30.0951 44.9982H16.7468V46.6389H30.0951V44.9982ZM16.0146 45.4448L13.591 50.1677L15.0553 50.9153L17.4789 46.1924L16.0146 45.4448ZM14.3232 49.7212H8.87944V51.3619H14.3232V49.7212ZM18.0891 42.9944H28.7155V41.3538H18.0891V42.9944ZM29.4506 41.806L24.3425 31.6535L22.8723 32.3897L27.9805 42.5422L29.4506 41.806ZM23.6074 31.2013H23.2345V32.8419H23.6074V31.2013ZM22.5005 31.6516L17.355 41.8041L18.8231 42.5441L23.9686 32.3916L22.5005 31.6516ZM41.364 30.9803L40.8198 31.5956L41.364 30.9803ZM41.3267 27.2615L41.8681 27.8789L41.8709 27.8767L41.3267 27.2615ZM45.4281 27.2615L44.8839 27.8767L44.8943 27.8857L44.9053 27.8948L45.4281 27.2615ZM45.4281 30.9803L45.9723 31.5956L45.9822 31.5868L45.9918 31.5778L45.4281 30.9803ZM37.4117 56.9008L37.5614 56.0941L37.5446 56.0911L37.5279 56.0887L37.4117 56.9008ZM35.7338 56.4917L36.0469 55.7332L36.0395 55.7302L36.0318 55.7272L35.7338 56.4917ZM35.0626 55.9711L34.2824 55.7116L34.2402 55.8379V55.9711H35.0626ZM35.8084 53.7398L36.0077 52.944L35.2688 52.7597L35.0281 53.4803L35.8084 53.7398ZM37.1134 53.9629L37.2603 53.1557L37.24 53.1521L37.2197 53.1494L37.1134 53.9629ZM40.4691 53.6282L39.9693 52.9766L39.9597 52.984L39.9504 52.9916L40.4691 53.6282ZM41.103 33.881V33.0607H40.2805V33.881H41.103ZM45.6518 33.881H46.4743V33.0607H45.6518V33.881ZM44.8688 54.8926L44.1812 54.4425L44.176 54.4502L44.1714 54.4578L44.8688 54.8926ZM42.8554 56.5661L42.5615 55.7999L42.5519 55.8035L42.5423 55.8076L42.8554 56.5661ZM43.3774 30.7178C42.5393 30.7178 42.1105 30.5433 41.9082 30.3653L40.8198 31.5956C41.4627 32.1611 42.3759 32.3585 43.3774 32.3585V30.7178ZM41.9082 30.3653C41.744 30.221 41.5526 29.8772 41.5526 29.0837H39.9076C39.9076 30.0755 40.1387 30.9962 40.8198 31.5956L41.9082 30.3653ZM41.5526 29.0837C41.5526 28.3041 41.7366 27.9937 41.8681 27.8789L40.7849 26.6441C40.1212 27.2235 39.9076 28.1277 39.9076 29.0837H41.5526ZM41.8709 27.8767C42.0699 27.7012 42.5078 27.524 43.3774 27.524V25.8833C42.3578 25.8833 41.4284 26.0779 40.7825 26.6463L41.8709 27.8767ZM43.3774 27.524C44.247 27.524 44.6846 27.7012 44.8839 27.8767L45.9723 26.6463C45.3264 26.0779 44.3967 25.8833 43.3774 25.8833V27.524ZM44.9053 27.8948C45.0495 28.0132 45.2395 28.3172 45.2395 29.0837H46.8845C46.8845 28.1146 46.6517 27.2039 45.951 26.6282L44.9053 27.8948ZM45.2395 29.0837C45.2395 29.8379 45.0544 30.2046 44.8645 30.3828L45.9918 31.5778C46.6468 30.9628 46.8845 30.0651 46.8845 29.0837H45.2395ZM44.8839 30.3653C44.6846 30.5406 44.247 30.7178 43.3774 30.7178V32.3585C44.3967 32.3585 45.3264 32.1638 45.9723 31.5956L44.8839 30.3653ZM39.4997 56.2664C38.8263 56.2664 38.1804 56.2084 37.5614 56.0941L37.262 57.7075C37.9849 57.8409 38.7312 57.9071 39.4997 57.9071V56.2664ZM37.5279 56.0887C36.8674 55.9946 36.3822 55.8707 36.0469 55.7332L35.4207 57.2503C35.9304 57.4597 36.5637 57.6087 37.2954 57.7129L37.5279 56.0887ZM36.0318 55.7272C35.9405 55.6916 35.8706 55.6602 35.8188 55.6334C35.7656 55.6058 35.7412 55.5883 35.7354 55.5839C35.7275 55.5779 35.7593 55.6 35.7963 55.6577C35.8374 55.7212 35.8851 55.8294 35.8851 55.9711H34.2402C34.2402 56.4357 34.5385 56.734 34.7254 56.8789C34.9289 57.0367 35.1816 57.1578 35.4355 57.2563L36.0318 55.7272ZM35.8429 56.2306L36.5886 53.9993L35.0281 53.4803L34.2824 55.7116L35.8429 56.2306ZM35.6088 54.5355C35.9537 54.6216 36.4261 54.7007 37.007 54.7764L37.2197 53.1494C36.6572 53.0764 36.2596 53.0067 36.0077 52.944L35.6088 54.5355ZM36.9661 54.7701C37.5668 54.8789 38.2007 54.932 38.8658 54.932V53.2913C38.2879 53.2913 37.7535 53.2451 37.2603 53.1557L36.9661 54.7701ZM38.8658 54.932C39.6666 54.932 40.4033 54.7384 40.9878 54.2648L39.9504 52.9916C39.7393 53.1625 39.407 53.2913 38.8658 53.2913V54.932ZM40.9686 54.2798C41.7168 53.7091 41.9254 52.6966 41.9254 51.6572H40.2805C40.2805 52.6011 40.0664 52.9027 39.9693 52.9766L40.9686 54.2798ZM41.9254 51.6572V33.881H40.2805V51.6572H41.9254ZM41.103 34.7014H45.6518V33.0607H41.103V34.7014ZM44.8294 33.881V51.6572H46.4743V33.881H44.8294ZM44.8294 51.6572C44.8294 52.9274 44.5845 53.8295 44.1812 54.4425L45.5564 55.3427C46.1969 54.3692 46.4743 53.1141 46.4743 51.6572H44.8294ZM44.1714 54.4578C43.7653 55.1059 43.2332 55.5437 42.5615 55.7999L43.149 57.3323C44.1678 56.9437 44.978 56.2661 45.5663 55.3274L44.1714 54.4578ZM42.5423 55.8076C41.8117 56.1075 40.9637 56.2664 39.9844 56.2664V57.9071C41.1427 57.9071 42.2087 57.7189 43.1685 57.3246L42.5423 55.8076ZM39.9844 56.2664H39.4997V57.9071H39.9844V56.2664ZM52.6016 50.0581L52.2446 50.7972L52.2498 50.7997L52.2553 50.8021L52.6016 50.0581ZM51.1474 48.8309L50.4266 49.2263L50.434 49.2397L50.442 49.2531L51.1474 48.8309ZM50.6254 47.2689L49.8062 47.3433L49.8079 47.3616L49.8103 47.3797L50.6254 47.2689ZM50.5508 33.881V33.0607H49.7283V33.881H50.5508ZM55.0997 33.881H55.9222V33.0607H55.0997V33.881ZM55.0997 45.8558L55.9214 45.893L55.9222 45.8744V45.8558H55.0997ZM55.6217 47.0086L55.1984 47.7122L55.2086 47.7179L55.2184 47.7237L55.6217 47.0086ZM65.3906 33.881V33.0607H64.5681V33.881H65.3906ZM69.9395 33.881H70.762V33.0607H69.9395V33.881ZM69.9395 50.5415V51.3619H70.762V50.5415H69.9395ZM66.8821 50.5415L66.4991 51.2675L66.6789 51.3619H66.8821V50.5415ZM65.4652 49.7978L65.8482 49.0718L65.5899 48.9364L65.304 48.9933L65.4652 49.7978ZM61.923 50.3184L61.8339 49.503H61.8323L61.923 50.3184ZM55.4726 49.7212C54.3115 49.7212 53.4901 49.5651 52.9478 49.314L52.2553 50.8021C53.1049 51.1956 54.1974 51.3619 55.4726 51.3619V49.7212ZM52.9582 49.319C52.391 49.0466 52.0478 48.733 51.8525 48.4089L50.442 49.2531C50.8436 49.9203 51.4698 50.4251 52.2446 50.7972L52.9582 49.319ZM51.8682 48.4355C51.642 48.0256 51.5008 47.6009 51.4402 47.1582L49.8103 47.3797C49.8991 48.0278 50.1061 48.6446 50.4266 49.2263L51.8682 48.4355ZM51.4446 47.1946C51.3966 46.6687 51.3733 46.1981 51.3733 45.7814H49.7283C49.7283 46.2572 49.7547 46.7784 49.8062 47.3433L51.4446 47.1946ZM51.3733 45.7814V33.881H49.7283V45.7814H51.3733ZM50.5508 34.7014H55.0997V33.0607H50.5508V34.7014ZM54.2772 33.881V45.8558H55.9222V33.881H54.2772ZM54.2781 45.8186C54.2438 46.5733 54.496 47.2916 55.1984 47.7122L56.0447 46.3053C56.0017 46.2793 55.906 46.229 55.9214 45.893L54.2781 45.8186ZM55.2184 47.7237C55.7369 48.0144 56.2978 48.1637 56.8894 48.1637V46.523C56.5862 46.523 56.3022 46.4491 56.025 46.2936L55.2184 47.7237ZM56.8894 48.1637H64.272V46.523H56.8894V48.1637ZM64.272 48.1637C64.5635 48.1637 64.8283 48.1508 65.0496 48.1169C65.1603 48.0999 65.2812 48.0745 65.3986 48.0332C65.506 47.9955 65.6749 47.9225 65.823 47.7745L64.66 46.6146C64.7129 46.5618 64.762 46.5304 64.7919 46.5137C64.8223 46.4967 64.8442 46.4885 64.8511 46.4861C64.8631 46.482 64.8505 46.4874 64.7995 46.4954C64.6975 46.5109 64.5273 46.523 64.272 46.523V48.1637ZM65.823 47.7745C65.9713 47.6269 66.0445 47.4584 66.0823 47.3515C66.1237 47.2342 66.1492 47.1136 66.1662 47.0032C66.2002 46.7825 66.2131 46.5183 66.2131 46.2277H64.5681C64.5681 46.4825 64.5561 46.652 64.5404 46.7538C64.5325 46.8046 64.527 46.8172 64.5311 46.8055C64.5336 46.7983 64.5418 46.7765 64.5588 46.7461C64.5755 46.7163 64.6071 46.6674 64.66 46.6146L65.823 47.7745ZM66.2131 46.2277V33.881H64.5681V46.2277H66.2131ZM65.3906 34.7014H69.9395V33.0607H65.3906V34.7014ZM69.117 33.881V50.5415H70.762V33.881H69.117ZM69.9395 49.7212H66.8821V51.3619H69.9395V49.7212ZM67.2651 49.8155L65.8482 49.0718L65.0822 50.5238L66.4991 51.2675L67.2651 49.8155ZM65.304 48.9933C64.34 49.1855 63.1847 49.3559 61.8339 49.503L62.0121 51.1338C63.3956 50.9834 64.6016 50.8065 65.6264 50.6022L65.304 48.9933ZM61.8323 49.503C60.5265 49.6479 59.0413 49.7212 57.3742 49.7212V51.3619C59.0877 51.3619 60.635 51.2867 62.0138 51.1338L61.8323 49.503ZM57.3742 49.7212H55.4726V51.3619H57.3742V49.7212ZM76.0785 50.0581L76.4355 49.319L76.0785 50.0581ZM74.6244 48.8309L73.9036 49.2263L73.9113 49.2397L73.9192 49.2531L74.6244 48.8309ZM74.1024 47.2689L73.2832 47.3433L73.2851 47.3616L73.2876 47.3797L74.1024 47.2689ZM74.1024 37.3024L73.2876 37.1916L73.2851 37.208L73.2837 37.2247L74.1024 37.3024ZM74.6244 35.7033L73.9102 35.2964L73.9028 35.3092L73.8959 35.3226L74.6244 35.7033ZM76.0785 34.4017L75.7106 33.668L75.7054 33.6708L75.6999 33.6735L76.0785 34.4017ZM86.3694 34.0298L86.3108 34.8479L86.3184 34.8485L86.3261 34.849L86.3694 34.0298ZM89.6133 34.2901L89.5047 35.1033L90.4358 35.2272V34.2901H89.6133ZM89.6133 26.9639V26.1436H88.7908V26.9639H89.6133ZM94.1622 26.9639H94.9847V26.1436H94.1622V26.9639ZM94.1622 50.5415V51.3619H94.9847V50.5415H94.1622ZM91.1047 50.5415L90.7294 51.2716L90.9063 51.3619H91.1047V50.5415ZM89.6506 49.7978L90.0259 49.0679L89.7838 48.9441L89.5154 48.9886L89.6506 49.7978ZM85.8847 50.3184L85.9681 51.1346L85.9749 51.1338L85.9818 51.133L85.8847 50.3184ZM89.4269 47.1574L88.8454 46.5774L89.4269 47.1574ZM89.6133 37.3396H90.4358V36.566L89.6616 36.5206L89.6133 37.3396ZM86.4067 37.1908L86.3593 38.0098L86.3672 38.0103L86.3752 38.0106L86.4067 37.1908ZM78.9495 49.7212C77.758 49.7212 76.9446 49.5634 76.4355 49.319L75.7218 50.7972C76.5547 51.1973 77.6555 51.3619 78.9495 51.3619V49.7212ZM76.4355 49.319C75.868 49.0466 75.5247 48.733 75.3298 48.4089L73.9192 49.2531C74.3206 49.9203 74.9468 50.4251 75.7218 50.7972L76.4355 49.319ZM75.3451 48.4355C75.119 48.0256 74.9778 47.6009 74.9174 47.1582L73.2876 47.3797C73.3761 48.0278 73.5831 48.6446 73.9036 49.2263L75.3451 48.4355ZM74.9216 47.1946C74.8736 46.6687 74.8503 46.1981 74.8503 45.7814H73.2053C73.2053 46.2572 73.2319 46.7784 73.2832 47.3433L74.9216 47.1946ZM74.8503 45.7814V38.6412H73.2053V45.7814H74.8503ZM74.8503 38.6412C74.8503 38.3032 74.873 37.8846 74.9213 37.38L73.2837 37.2247C73.2325 37.7615 73.2053 38.2354 73.2053 38.6412H74.8503ZM74.9174 37.4131C74.9783 36.9682 75.1209 36.5261 75.3531 36.0839L73.8959 35.3226C73.5812 35.9218 73.3758 36.5458 73.2876 37.1916L74.9174 37.4131ZM75.3386 36.1102C75.5403 35.758 75.8905 35.423 76.4571 35.1299L75.6999 33.6735C74.9243 34.0746 74.305 34.6073 73.9102 35.2964L75.3386 36.1102ZM76.4464 35.1353C76.9816 34.8684 77.7942 34.7014 78.9495 34.7014V33.0607C77.6689 33.0607 76.5676 33.2406 75.7106 33.668L76.4464 35.1353ZM78.9495 34.7014H80.8511V33.0607H78.9495V34.7014ZM80.8511 34.7014C83.1291 34.7014 84.9465 34.7509 86.3108 34.8479L86.4281 33.2116C85.0082 33.1105 83.1469 33.0607 80.8511 33.0607V34.7014ZM86.3261 34.849C87.7367 34.9231 88.7919 35.0085 89.5047 35.1033L89.7221 33.4769C88.9433 33.3735 87.8359 33.2852 86.4128 33.2105L86.3261 34.849ZM90.4358 34.2901V26.9639H88.7908V34.2901H90.4358ZM89.6133 27.7843H94.1622V26.1436H89.6133V27.7843ZM93.3397 26.9639V50.5415H94.9847V26.9639H93.3397ZM94.1622 49.7212H91.1047V51.3619H94.1622V49.7212ZM91.4801 49.8117L90.0259 49.0679L89.2753 50.5279L90.7294 51.2716L91.4801 49.8117ZM89.5154 48.9886C88.4879 49.1593 87.2462 49.3313 85.7879 49.5038L85.9818 51.133C87.4565 50.9585 88.7253 50.7833 89.7858 50.6069L89.5154 48.9886ZM85.8016 49.5022C84.3694 49.6476 82.7077 49.7212 80.8138 49.7212V51.3619C82.748 51.3619 84.467 51.2867 85.9681 51.1346L85.8016 49.5022ZM80.8138 49.7212H78.9495V51.3619H80.8138V49.7212ZM80.3664 48.1637H88.4575V46.523H80.3664V48.1637ZM88.4575 48.1637C88.7442 48.1637 89.0132 48.1472 89.2468 48.1024C89.4494 48.0636 89.7663 47.9791 90.0084 47.7374L88.8454 46.5774C88.9131 46.5096 88.972 46.485 88.98 46.4814C88.9907 46.477 88.9797 46.4828 88.9361 46.4913C88.8465 46.5085 88.693 46.523 88.4575 46.523V48.1637ZM90.0084 47.7374C90.2455 47.5011 90.3324 47.1959 90.3733 46.9928C90.4191 46.7639 90.4358 46.5027 90.4358 46.2277H88.7908C88.7908 46.4483 88.7766 46.5902 88.7601 46.6712C88.7524 46.7103 88.7472 46.7185 88.7524 46.7065C88.7571 46.6961 88.7815 46.6408 88.8454 46.5774L90.0084 47.7374ZM90.4358 46.2277V37.3396H88.7908V46.2277H90.4358ZM89.6616 36.5206C88.8089 36.4706 87.7339 36.4208 86.4382 36.371L86.3752 38.0106C87.6649 38.0601 88.7275 38.1093 89.5651 38.1585L89.6616 36.5206ZM86.4542 36.3718C85.1439 36.2964 83.7485 36.2589 82.268 36.2589V37.8996C83.7208 37.8996 85.0844 37.9365 86.3593 38.0098L86.4542 36.3718ZM82.268 36.2589H80.3664V37.8996H82.268V36.2589ZM80.3664 36.2589C79.6758 36.2589 79.0049 36.3992 78.4977 36.8208C77.9615 37.2666 77.7542 37.9012 77.7542 38.5668H79.3992C79.3992 38.2409 79.4902 38.1317 79.5508 38.0814C79.6399 38.0071 79.8639 37.8996 80.3664 37.8996V36.2589ZM77.7542 38.5668V45.8558H79.3992V38.5668H77.7542ZM77.7542 45.8558C77.7542 46.5213 77.9615 47.156 78.4977 47.6017C79.0049 48.0234 79.6758 48.1637 80.3664 48.1637V46.523C79.8639 46.523 79.6399 46.4155 79.5508 46.3411C79.4902 46.2908 79.3992 46.182 79.3992 45.8558H77.7542ZM99.7236 49.2399L99.1256 49.8032L99.1297 49.8073L99.1338 49.8114L99.7236 49.2399ZM99.7608 41.8766L99.1876 41.2884L99.1835 41.2925L99.1793 41.2966L99.7608 41.8766ZM110.76 40.7237L110.706 41.5422L110.76 40.7237ZM114.451 41.0213L114.368 41.8372L115.274 41.9299V41.0213H114.451ZM114.377 37.8974L113.571 38.0582L113.572 38.0669L113.574 38.0754L114.377 37.8974ZM113.929 37.3024L113.506 38.006L113.929 37.3024ZM104.011 37.228L104.045 38.0478L104.051 38.0475L104.057 38.0473L104.011 37.228ZM100.32 37.4511L99.5061 37.5687L99.6207 38.3573L100.414 38.266L100.32 37.4511ZM99.91 34.6248H99.0875V34.6839L99.096 34.7424L99.91 34.6248ZM118.367 35.7033L117.638 36.0839L117.645 36.0973L117.653 36.1102L118.367 35.7033ZM118.889 37.3024L118.07 37.3768L118.072 37.3975L118.075 37.4183L118.889 37.3024ZM119 50.5415V51.3619H119.823V50.5415H119ZM115.943 50.5415L115.568 51.2716L115.744 51.3619H115.943V50.5415ZM114.489 49.7978L114.864 49.0679L114.622 48.9441L114.354 48.9886L114.489 49.7978ZM110.723 50.3184L110.806 51.1346L110.813 51.1338L110.82 51.133L110.723 50.3184ZM114.451 43.4013H115.274V42.581H114.451V43.4013ZM103.378 43.8848L102.75 43.3548L102.737 43.3696L102.726 43.3846L103.378 43.8848ZM103.452 46.8971L102.871 47.477L103.452 46.8971ZM103.825 49.7212C102.037 49.7212 100.936 49.3075 100.314 48.6684L99.1338 49.8114C100.202 50.908 101.835 51.3619 103.825 51.3619V49.7212ZM100.321 48.6766C99.6547 47.9722 99.2783 46.9783 99.2783 45.5955H97.6333C97.6333 47.2867 98.1024 48.7226 99.1256 49.8032L100.321 48.6766ZM99.2783 45.5955C99.2783 44.1309 99.6706 43.1268 100.343 42.4566L99.1793 41.2966C98.1112 42.362 97.6333 43.8372 97.6333 45.5955H99.2783ZM100.334 42.4648C101.018 41.8019 102.128 41.3953 103.825 41.3953V39.7546C101.893 39.7546 100.294 40.216 99.1876 41.2884L100.334 42.4648ZM103.825 41.3953H105.727V39.7546H103.825V41.3953ZM105.727 41.3953C107.577 41.3953 109.236 41.4445 110.706 41.5422L110.815 39.9053C109.302 39.8047 107.605 39.7546 105.727 39.7546V41.3953ZM110.706 41.5422C112.192 41.6412 113.412 41.7396 114.368 41.8372L114.535 40.2053C113.553 40.1047 112.312 40.0049 110.815 39.9053L110.706 41.5422ZM115.274 41.0213V38.5668H113.629V41.0213H115.274ZM115.274 38.5668C115.274 38.2824 115.242 37.9997 115.18 37.7194L113.574 38.0754C113.611 38.2414 113.629 38.4049 113.629 38.5668H115.274ZM115.184 37.7366C115.082 37.2283 114.769 36.8479 114.353 36.5991L113.506 38.006C113.554 38.0347 113.569 38.0535 113.57 38.0549C113.571 38.056 113.57 38.0555 113.57 38.0538C113.569 38.0524 113.57 38.0535 113.571 38.0582L115.184 37.7366ZM114.353 36.5991C113.899 36.3275 113.28 36.2589 112.662 36.2589V37.8996C112.929 37.8996 113.133 37.9165 113.283 37.9428C113.357 37.9559 113.412 37.9701 113.451 37.983C113.469 37.9893 113.483 37.9948 113.493 37.9991C113.497 38.001 113.501 38.003 113.503 38.004C113.505 38.0051 113.506 38.006 113.506 38.006L114.353 36.5991ZM112.662 36.2589H110.797V37.8996H112.662V36.2589ZM110.797 36.2589C108.08 36.2589 105.801 36.3087 103.966 36.409L104.057 38.0473C105.851 37.9491 108.097 37.8996 110.797 37.8996V36.2589ZM103.978 36.4085C102.167 36.4826 100.907 36.5578 100.226 36.6363L100.414 38.266C101.026 38.1957 102.227 38.1222 104.045 38.0478L103.978 36.4085ZM101.134 37.3336L100.724 34.5072L99.096 34.7424L99.5061 37.5687L101.134 37.3336ZM100.732 34.6248C100.732 34.782 100.675 34.9103 100.612 34.9942C100.583 35.0325 100.556 35.0579 100.538 35.0727C100.52 35.0877 100.508 35.0949 100.506 35.096C100.504 35.097 100.524 35.0856 100.578 35.067C100.63 35.0489 100.702 35.0284 100.798 35.0071C101.196 34.9182 101.844 34.849 102.776 34.8124L102.711 33.1728C101.755 33.2105 100.986 33.2838 100.439 33.4058C100.172 33.4654 99.8965 33.5493 99.6682 33.6841C99.453 33.8113 99.0875 34.1066 99.0875 34.6248H100.732ZM102.776 34.8124C104.648 34.7386 107.79 34.7014 112.214 34.7014V33.0607C107.789 33.0607 104.618 33.0979 102.711 33.1728L102.776 34.8124ZM112.214 34.7014H114.079V33.0607H112.214V34.7014ZM114.079 34.7014C115.265 34.7014 116.069 34.8704 116.571 35.1299L117.328 33.6735C116.488 33.239 115.378 33.0607 114.079 33.0607V34.7014ZM116.571 35.1299C117.135 35.4216 117.462 35.7492 117.638 36.0839L119.095 35.3226C118.724 34.6161 118.107 34.076 117.328 33.6735L116.571 35.1299ZM117.653 36.1102C117.898 36.5387 118.031 36.9592 118.07 37.3768L119.708 37.228C119.646 36.5548 119.432 35.9092 119.081 35.2964L117.653 36.1102ZM118.075 37.4183C118.146 37.9149 118.178 38.3204 118.178 38.6412H119.823C119.823 38.2182 119.781 37.7312 119.703 37.1864L118.075 37.4183ZM118.178 38.6412V50.5415H119.823V38.6412H118.178ZM119 49.7212H115.943V51.3619H119V49.7212ZM116.318 49.8117L114.864 49.0679L114.113 50.5279L115.568 51.2716L116.318 49.8117ZM114.354 48.9886C113.326 49.1593 112.084 49.3313 110.626 49.5038L110.82 51.133C112.295 50.9585 113.563 50.7833 114.624 50.6069L114.354 48.9886ZM110.64 49.5022C109.207 49.6476 107.558 49.7212 105.689 49.7212V51.3619C107.599 51.3619 109.305 51.2867 110.806 51.1346L110.64 49.5022ZM105.689 49.7212H103.825V51.3619H105.689V49.7212ZM104.794 48.1637H113.333V46.523H104.794V48.1637ZM113.333 48.1637C113.625 48.1637 113.889 48.1508 114.111 48.1169C114.221 48.0999 114.342 48.0745 114.46 48.0332C114.567 47.9955 114.736 47.9225 114.884 47.7745L113.721 46.6146C113.774 46.5618 113.823 46.5304 113.853 46.5137C113.883 46.4967 113.905 46.4885 113.912 46.4861C113.924 46.482 113.911 46.4874 113.86 46.4954C113.759 46.5109 113.588 46.523 113.333 46.523V48.1637ZM114.884 47.7745C115.028 47.6313 115.101 47.4688 115.141 47.3611C115.183 47.2449 115.209 47.1259 115.227 47.0174C115.261 46.8008 115.274 46.5443 115.274 46.2648H113.629C113.629 46.506 113.617 46.6649 113.602 46.7581C113.595 46.8046 113.59 46.8142 113.595 46.8003C113.597 46.7948 113.627 46.7084 113.721 46.6146L114.884 47.7745ZM115.274 46.2648V43.4013H113.629V46.2648H115.274ZM114.451 42.581H104.794V44.2217H114.451V42.581ZM104.794 42.581C104.022 42.581 103.252 42.7631 102.75 43.3548L104.006 44.4147C104.05 44.3619 104.225 44.2217 104.794 44.2217V42.581ZM102.726 43.3846C102.312 43.9209 102.182 44.6499 102.182 45.4095H103.827C103.827 44.7806 103.946 44.4935 104.03 44.3849L102.726 43.3846ZM102.182 45.4095C102.182 46.1869 102.344 46.9515 102.871 47.477L104.034 46.3171C103.964 46.2476 103.827 46.0204 103.827 45.4095H102.182ZM102.871 47.477C103.378 47.9826 104.071 48.1637 104.794 48.1637V46.523C104.325 46.523 104.124 46.4065 104.034 46.3171L102.871 47.477ZM123.302 50.5415H122.479V51.3619H123.302V50.5415ZM123.302 33.881V33.0607H122.479V33.881H123.302ZM126.359 33.881L126.743 33.155L126.563 33.0607H126.359V33.881ZM127.776 34.6248L127.393 35.3508L127.781 35.5542L128.166 35.347L127.776 34.6248ZM129.864 33.8067L130.076 34.5994L129.864 33.8067ZM137.098 34.1042L136.822 34.8772L136.825 34.878L136.828 34.8791L137.098 34.1042ZM139.372 34.9967L140.135 35.303L140.411 34.6196L139.759 34.2729L139.372 34.9967ZM138.067 38.2321L137.7 38.9658L138.497 39.3639L138.83 38.5384L138.067 38.2321ZM136.576 37.6743L136.29 38.4435L136.307 38.4498L136.324 38.4552L136.576 37.6743ZM134.189 37.0049L134.363 36.2031L134.189 37.0049ZM128.41 37.414L127.765 36.9056L127.756 36.9163L127.748 36.9272L128.41 37.414ZM127.851 39.7568L127.029 39.7382L127.028 39.7475V39.7568H127.851ZM127.851 50.5415V51.3619H128.673V50.5415H127.851ZM124.124 50.5415V33.881H122.479V50.5415H124.124ZM123.302 34.7014H126.359V33.0607H123.302V34.7014ZM125.976 34.607L127.393 35.3508L128.16 33.8988L126.743 33.155L125.976 34.607ZM128.166 35.347C128.753 35.0317 129.389 34.782 130.076 34.5994L129.652 33.0139C128.848 33.228 128.092 33.5236 127.386 33.9026L128.166 35.347ZM130.076 34.5994C130.728 34.426 131.595 34.3295 132.698 34.3295V32.6888C131.514 32.6888 130.492 32.7908 129.652 33.0139L130.076 34.5994ZM132.698 34.3295C134.463 34.3295 135.826 34.5239 136.822 34.8772L137.373 33.3311C136.132 32.8912 134.562 32.6888 132.698 32.6888V34.3295ZM136.828 34.8791C137.979 35.2786 138.677 35.557 138.985 35.7205L139.759 34.2729C139.321 34.0399 138.503 33.7233 137.368 33.3295L136.828 34.8791ZM138.609 34.6904L137.304 37.9258L138.83 38.5384L140.135 35.303L138.609 34.6904ZM138.435 37.4984C138.077 37.3196 137.528 37.1178 136.827 36.8933L136.324 38.4552C137.016 38.677 137.462 38.8471 137.7 38.9658L138.435 37.4984ZM136.861 36.9051C136.144 36.6401 135.31 36.4071 134.363 36.2031L134.016 37.8066C134.909 37.9991 135.665 38.2124 136.29 38.4435L136.861 36.9051ZM134.363 36.2031C133.378 35.9907 132.312 35.887 131.169 35.887V37.5277C132.214 37.5277 133.161 37.6226 134.016 37.8066L134.363 36.2031ZM131.169 35.887H130.759V37.5277H131.169V35.887ZM130.759 35.887C129.538 35.887 128.393 36.1118 127.765 36.9056L129.056 37.9223C129.173 37.7741 129.594 37.5277 130.759 37.5277V35.887ZM127.748 36.9272C127.245 37.6086 127.054 38.604 127.029 39.7382L128.673 39.7754C128.697 38.7279 128.88 38.1613 129.072 37.9007L127.748 36.9272ZM127.028 39.7568V50.5415H128.673V39.7568H127.028ZM127.851 49.7212H123.302V51.3619H127.851V49.7212ZM144.629 42.7319L143.818 42.8695L143.935 43.5523H144.629V42.7319ZM143.995 39.0503L143.184 39.1875L143.184 39.1903L143.995 39.0503ZM143.361 35.2942L142.547 35.4101L142.548 35.4197L142.55 35.429L143.361 35.2942ZM142.914 32.1704L142.099 32.2863L142.914 32.1704ZM142.914 28.8606L142.15 28.5559L142.141 28.5784L142.133 28.6011L142.914 28.8606ZM148.917 28.8606L148.153 29.1652L148.166 29.1969L148.181 29.2275L148.917 28.8606ZM148.991 32.2075L148.177 32.0916L148.175 32.1017L148.174 32.1118L148.991 32.2075ZM148.544 35.2942L147.732 35.1621L147.731 35.169L147.73 35.1758L148.544 35.2942ZM147.947 39.0503L148.758 39.1903L148.758 39.1875L147.947 39.0503ZM147.313 42.7319V43.5523H148.008L148.124 42.8695L147.313 42.7319ZM143.92 49.9837L143.376 50.599L143.92 49.9837ZM143.883 46.2648L144.425 46.8823L144.427 46.8801L143.883 46.2648ZM147.984 46.2648L147.44 46.8801L147.451 46.8891L147.462 46.8981L147.984 46.2648ZM147.984 49.9837L148.529 50.599L148.538 50.5902L148.548 50.5812L147.984 49.9837ZM145.44 42.5944C145.241 41.4281 145.029 40.2004 144.805 38.9102L143.184 39.1903C143.408 40.4787 143.619 41.7051 143.818 42.8695L145.44 42.5944ZM144.806 38.913C144.582 37.5996 144.371 36.3486 144.172 35.1594L142.55 35.429C142.749 36.6201 142.96 37.8728 143.184 39.1875L144.806 38.913ZM144.175 35.1783C144.001 33.9633 143.852 32.9221 143.728 32.0544L142.099 32.2863C142.224 33.1542 142.373 34.1955 142.547 35.4101L144.175 35.1783ZM143.728 32.0544C143.601 31.1698 143.55 30.6746 143.55 30.4969H141.905C141.905 30.8149 141.978 31.4353 142.099 32.2863L143.728 32.0544ZM143.55 30.4969C143.55 29.8053 143.612 29.3653 143.694 29.1201L142.133 28.6011C141.967 29.0996 141.905 29.7504 141.905 30.4969H143.55ZM143.677 29.1652C143.657 29.2171 143.62 29.2199 143.676 29.1961C143.752 29.1638 143.917 29.1231 144.219 29.1231V27.4824C143.447 27.4824 142.504 27.6733 142.15 28.5559L143.677 29.1652ZM144.219 29.1231H147.686V27.4824H144.219V29.1231ZM147.686 29.1231C147.957 29.1231 148.098 29.1622 148.157 29.189C148.182 29.2005 148.183 29.2054 148.174 29.1966C148.164 29.1865 148.156 29.1737 148.153 29.1652L149.68 28.5559C149.334 27.6924 148.444 27.4824 147.686 27.4824V29.1231ZM148.181 29.2275C148.267 29.3979 148.355 29.7843 148.355 30.4969H150C150 29.7219 149.915 29.0175 149.652 28.4936L148.181 29.2275ZM148.355 30.4969C148.355 30.7006 148.303 31.2111 148.177 32.0916L149.805 32.3235C149.928 31.4684 150 30.8387 150 30.4969H148.355ZM148.174 32.1118C148.077 32.9385 147.93 33.9543 147.732 35.1621L149.355 35.4263C149.556 34.2042 149.707 33.1624 149.808 32.3035L148.174 32.1118ZM147.73 35.1758C147.557 36.359 147.359 37.6045 147.136 38.913L148.758 39.1875C148.983 37.8679 149.182 36.6095 149.358 35.4126L147.73 35.1758ZM147.137 38.9102C146.913 40.2004 146.702 41.4281 146.503 42.5944L148.124 42.8695C148.323 41.7051 148.534 40.4787 148.758 39.1903L147.137 38.9102ZM147.313 41.9116H144.629V43.5523H147.313V41.9116ZM145.934 49.7212C145.096 49.7212 144.667 49.5467 144.464 49.3687L143.376 50.599C144.019 51.1645 144.932 51.3619 145.934 51.3619V49.7212ZM144.464 49.3687C144.296 49.2205 144.109 48.8842 144.109 48.1243H142.464C142.464 49.0999 142.699 50.0031 143.376 50.599L144.464 49.3687ZM144.109 48.1243C144.109 47.3111 144.297 46.9936 144.425 46.8823L143.341 45.6474C142.674 46.2304 142.464 47.1525 142.464 48.1243H144.109ZM144.427 46.8801C144.626 46.7045 145.064 46.5274 145.934 46.5274V44.8867C144.914 44.8867 143.985 45.0814 143.339 45.6499L144.427 46.8801ZM145.934 46.5274C146.803 46.5274 147.241 46.7045 147.44 46.8801L148.529 45.6499C147.883 45.0814 146.953 44.8867 145.934 44.8867V46.5274ZM147.462 46.8981C147.601 47.013 147.796 47.3239 147.796 48.1243H149.441C149.441 47.1396 149.213 46.211 148.507 45.6315L147.462 46.8981ZM147.796 48.1243C147.796 48.8454 147.615 49.2041 147.421 49.3862L148.548 50.5812C149.199 49.97 149.441 49.0893 149.441 48.1243H147.796ZM147.44 49.3687C147.241 49.544 146.803 49.7212 145.934 49.7212V51.3619C146.953 51.3619 147.883 51.1672 148.529 50.599L147.44 49.3687Z" fill="#120B05"/>
<path d="M11.7043 22.6501L10.9615 23.0022L11.1846 23.4704H11.7043V22.6501ZM1.30158 0.820338V0H0L0.558738 1.17249L1.30158 0.820338ZM6.5216 0.820338L7.26762 0.474938L7.04659 0H6.5216V0.820338ZM13.5314 15.8817L14.3015 15.5937L14.2905 15.5646L14.2774 15.5363L13.5314 15.8817ZM14.5381 18.5593L13.768 18.8474L13.9681 19.3797H14.5381V18.5593ZM14.8736 18.5593V19.3797H15.4511L15.6472 18.8379L14.8736 18.5593ZM15.8431 15.8817L15.0985 15.5333L15.0824 15.5675L15.0695 15.6031L15.8431 15.8817ZM22.9274 0.820338V0H22.4048L22.1828 0.471924L22.9274 0.820338ZM27.9983 0.820338L28.7931 1.03171L29.0689 0H27.9983V0.820338ZM27.4017 3.05166L28.1387 3.41572L28.1751 3.34225L28.1965 3.26303L27.4017 3.05166ZM17.6701 22.6501V23.4704H18.1806L18.4071 23.0141L17.6701 22.6501ZM12.4472 22.2979L2.04443 0.468186L0.558738 1.17249L10.9615 23.0022L12.4472 22.2979ZM1.30158 1.64068H6.5216V0H1.30158V1.64068ZM5.77558 1.16574L12.7853 16.2271L14.2774 15.5363L7.26762 0.474938L5.77558 1.16574ZM12.7612 16.1698L13.768 18.8474L15.3082 18.2713L14.3015 15.5937L12.7612 16.1698ZM14.5381 19.3797H14.8736V17.739H14.5381V19.3797ZM15.6472 18.8379L16.6167 16.1604L15.0695 15.6031L14.1 18.2807L15.6472 18.8379ZM16.5877 16.2302L23.672 1.16875L22.1828 0.471924L15.0985 15.5333L16.5877 16.2302ZM22.9274 1.64068H27.9983V0H22.9274V1.64068ZM27.2036 0.608967L26.607 2.84028L28.1965 3.26303L28.7931 1.03171L27.2036 0.608967ZM26.6647 2.68758L16.933 22.286L18.4071 23.0141L28.1387 3.41572L26.6647 2.68758ZM17.6701 21.8297H11.7043V23.4704H17.6701V21.8297ZM30.8054 22.1666L31.1624 21.4275L30.8054 22.1666ZM29.3513 20.9394L28.6308 21.3347L28.6382 21.3482L28.6462 21.3615L29.3513 20.9394ZM28.8293 19.3775L28.0104 19.4517L28.012 19.4701L28.0145 19.4883L28.8293 19.3775ZM28.8293 9.41091L28.0145 9.30009L28.0123 9.31658L28.0107 9.33315L28.8293 9.41091ZM29.3513 7.8118L28.6374 7.40481L28.6297 7.41785L28.6229 7.43117L29.3513 7.8118ZM30.8054 6.5102L30.4378 5.77646L30.4323 5.77917L30.4268 5.78193L30.8054 6.5102ZM45.5334 6.47301L45.2609 7.24697L45.2732 7.25132L45.2858 7.25526L45.5334 6.47301ZM47.5095 7.96056L46.7847 8.34795L46.7899 8.35782L46.7956 8.36755L47.5095 7.96056ZM48.1061 16.2536V17.074H48.9286V16.2536H48.1061ZM36.1001 16.1049L36.0417 16.9231L36.0425 16.9232L36.1001 16.1049ZM33.3036 15.9189L33.3469 15.0997L32.4811 15.0543V15.9189H33.3036ZM33.3036 17.9643L34.1258 17.9848L34.1261 17.9746V17.9643H33.3036ZM40.9099 19.4147L40.9261 20.2348L40.9338 20.2347L40.9417 20.2344L40.9099 19.4147ZM44.4521 19.2659L44.4905 20.0854L44.4998 20.0849L44.5094 20.0842L44.4521 19.2659ZM47.0248 19.08L47.7253 18.65L47.4624 18.2236L46.9618 18.262L47.0248 19.08ZM48.5163 21.4972H49.3387V21.265L49.2167 21.0673L48.5163 21.4972ZM33.3036 13.0554H32.4811V13.8757H33.3036V13.0554ZM43.5572 13.0554V13.8757H44.3797V13.0554H43.5572ZM43.3708 9.63405L42.6352 10.0009L42.6528 10.0358L42.6733 10.0688L43.3708 9.63405ZM42.4014 9.26216L42.3271 10.0791L42.4014 9.26216ZM33.6765 21.8297C32.485 21.8297 31.6715 21.672 31.1624 21.4275L30.4488 22.9057C31.2817 23.3058 32.3824 23.4704 33.6765 23.4704V21.8297ZM31.1624 21.4275C30.5952 21.1551 30.2516 20.8416 30.0567 20.5173L28.6462 21.3615C29.0475 22.0289 29.6737 22.5336 30.4488 22.9057L31.1624 21.4275ZM30.0721 20.544C29.8459 20.134 29.705 19.7095 29.6444 19.2666L28.0145 19.4883C28.103 20.1363 28.31 20.7531 28.6308 21.3347L30.0721 20.544ZM29.6485 19.3032C29.6005 18.7771 29.5772 18.3066 29.5772 17.8899H27.9322C27.9322 18.3658 27.9588 18.8869 28.0104 19.4517L29.6485 19.3032ZM29.5772 17.8899V10.7497H27.9322V17.8899H29.5772ZM29.5772 10.7497C29.5772 10.4118 29.6 9.99297 29.6482 9.48868L28.0107 9.33315C27.9594 9.87014 27.9322 10.3438 27.9322 10.7497H29.5772ZM29.6444 9.52174C29.7052 9.07676 29.8478 8.63455 30.08 8.19244L28.6229 7.43117C28.3081 8.03031 28.1028 8.65418 28.0145 9.30009L29.6444 9.52174ZM30.0655 8.2188C30.2673 7.86657 30.6174 7.53152 31.1841 7.23847L30.4268 5.78193C29.6512 6.18305 29.0322 6.71575 28.6374 7.40481L30.0655 8.2188ZM31.1734 7.24394C31.7085 6.97703 32.5211 6.8099 33.6765 6.8099V5.16922C32.3959 5.16922 31.2946 5.34918 30.4378 5.77646L31.1734 7.24394ZM33.6765 6.8099H41.6929V5.16922H33.6765V6.8099ZM41.6929 6.8099C43.2951 6.8099 44.4685 6.96929 45.2609 7.24697L45.8062 5.69905C44.7592 5.33214 43.3722 5.16922 41.6929 5.16922V6.8099ZM45.2858 7.25526C46.0803 7.50557 46.5374 7.88755 46.7847 8.34795L48.2347 7.57317C47.7363 6.6452 46.8757 6.03547 45.7812 5.69074L45.2858 7.25526ZM46.7956 8.36755C47.0969 8.8938 47.2836 9.66615 47.2836 10.7497H48.9286C48.9286 9.50276 48.7178 8.41568 48.2237 7.55356L46.7956 8.36755ZM47.2836 10.7497V16.2536H48.9286V10.7497H47.2836ZM48.1061 15.4333H41.5811V17.074H48.1061V15.4333ZM41.5811 15.4333C39.3538 15.4333 37.5479 15.3838 36.1576 15.2866L36.0425 16.9232C37.4862 17.0242 39.3343 17.074 41.5811 17.074V15.4333ZM36.1587 15.2866C34.7679 15.1875 33.8281 15.125 33.3469 15.0997L33.2606 16.7381C33.7239 16.7625 34.6484 16.8239 36.0417 16.9231L36.1587 15.2866ZM32.4811 15.9189V17.9643H34.1261V15.9189H32.4811ZM32.4814 17.9438C32.4647 18.6136 32.6623 19.2584 33.206 19.7102C33.7157 20.1339 34.3953 20.2722 35.0933 20.2722V18.6315C34.5732 18.6315 34.346 18.5219 34.2591 18.4498C34.2059 18.4057 34.1179 18.3067 34.1258 17.9848L32.4814 17.9438ZM35.0933 20.2722H36.9949V18.6315H35.0933V20.2722ZM36.9949 20.2722C38.3424 20.2722 39.6526 20.2597 40.9261 20.2348L40.894 18.5945C39.6318 18.6192 38.3323 18.6315 36.9949 18.6315V20.2722ZM40.9417 20.2344C42.2361 20.1847 43.4191 20.1351 44.4905 20.0854L44.414 18.4464C43.3478 18.4959 42.1692 18.5454 40.8784 18.5949L40.9417 20.2344ZM44.5094 20.0842C45.5792 20.0098 46.4389 19.9477 47.0879 19.8979L46.9618 18.262C46.3183 18.3114 45.4629 18.3732 44.3951 18.4476L44.5094 20.0842ZM46.3243 19.5099L47.8158 21.9272L49.2167 21.0673L47.7253 18.65L46.3243 19.5099ZM47.6938 21.4972C47.6938 21.1802 47.9531 21.1435 47.7061 21.2598C47.5068 21.3536 47.1397 21.4593 46.5522 21.5515C45.3936 21.7333 43.6096 21.8297 41.1709 21.8297V23.4704C43.6293 23.4704 45.518 23.3746 46.808 23.1722C47.4446 23.0723 47.9956 22.9378 48.4085 22.7434C48.7734 22.5715 49.3387 22.1985 49.3387 21.4972H47.6938ZM41.1709 21.8297H33.6765V23.4704H41.1709V21.8297ZM33.3036 13.8757H43.5572V12.2351H33.3036V13.8757ZM44.3797 13.0554V10.6753H42.7347V13.0554H44.3797ZM44.3797 10.6753C44.3797 10.1631 44.3252 9.60911 44.0683 9.19927L42.6733 10.0688C42.6591 10.046 42.6799 10.0697 42.701 10.1873C42.721 10.2985 42.7347 10.4579 42.7347 10.6753H44.3797ZM44.1067 9.26719C43.9254 8.90619 43.5997 8.72279 43.3491 8.62667C43.0879 8.52643 42.7863 8.47332 42.4759 8.44519L42.3271 10.0791C42.5634 10.1006 42.6969 10.1343 42.7586 10.158C42.7871 10.1689 42.7797 10.1699 42.7548 10.1509C42.7276 10.1301 42.6764 10.0827 42.6352 10.0009L44.1067 9.26719ZM42.4759 8.44519C41.8881 8.39189 40.9225 8.36744 39.6049 8.36744V10.0081C40.9223 10.0081 41.821 10.0332 42.3271 10.0791L42.4759 8.44519ZM39.6049 8.36744H35.0933V10.0081H39.6049V8.36744ZM35.0933 8.36744C34.403 8.36744 33.7318 8.50783 33.2246 8.92946C32.6887 9.37498 32.4811 10.0097 32.4811 10.6753H34.1261C34.1261 10.3492 34.2171 10.2402 34.2777 10.1899C34.3671 10.1157 34.5908 10.0081 35.0933 10.0081V8.36744ZM32.4811 10.6753V13.0554H34.1261V10.6753H32.4811ZM52.2492 22.6501H51.4268V23.4704H52.2492V22.6501ZM52.2492 5.98956V5.16922H51.4268V5.98956H52.2492ZM55.3067 5.98956L55.6625 5.25L55.4939 5.16922H55.3067V5.98956ZM56.2388 6.43582L55.883 7.17538L56.1198 7.28876L56.3787 7.24424L56.2388 6.43582ZM58.8861 6.13831L58.9448 6.95657L58.9544 6.95586L58.9643 6.95496L58.8861 6.13831ZM66.567 6.28707L66.3334 7.07361L66.3469 7.0776L66.3606 7.08116L66.567 6.28707ZM68.0585 7.06803L67.4559 7.62624L67.8751 8.07664L68.4264 7.80177L68.0585 7.06803ZM70.7431 6.28707L70.6021 5.47887L70.7431 6.28707ZM81.3695 7.8118L80.6411 8.19244L80.6479 8.20576L80.6556 8.2188L81.3695 7.8118ZM81.8915 9.41091L81.0726 9.48518L81.0745 9.50613L81.0773 9.52694L81.8915 9.41091ZM82.0034 22.6501V23.4704H82.8259V22.6501H82.0034ZM77.4545 22.6501H76.632V23.4704H77.4545V22.6501ZM69.4008 22.6501V23.4704H70.2232V22.6501H69.4008ZM64.8519 22.6501H64.0294V23.4704H64.8519V22.6501ZM56.9845 9.33654L57.4079 10.04L57.4246 10.0299L57.4408 10.0191L56.9845 9.33654ZM56.7981 22.6501V23.4704H57.6206V22.6501H56.7981ZM53.0717 22.6501V5.98956H51.4268V22.6501H53.0717ZM52.2492 6.8099H55.3067V5.16922H52.2492V6.8099ZM54.9508 6.72912L55.883 7.17538L56.5947 5.69626L55.6625 5.25L54.9508 6.72912ZM56.3787 7.24424C57.0641 7.12638 57.9175 7.02975 58.9448 6.95657L58.8277 5.32005C57.767 5.39563 56.8557 5.49733 56.0993 5.62741L56.3787 7.24424ZM58.9643 6.95496C59.9748 6.85895 61.1902 6.8099 62.6147 6.8099V5.16922C61.1559 5.16922 59.8857 5.21932 58.8083 5.32167L58.9643 6.95496ZM62.6147 6.8099H64.479V5.16922H62.6147V6.8099ZM64.479 6.8099C65.1233 6.8099 65.7404 6.89836 66.3334 7.07361L66.8009 5.50053C66.0516 5.27912 65.2766 5.16922 64.479 5.16922V6.8099ZM66.3606 7.08116C66.9459 7.23248 67.2779 7.43519 67.4559 7.62624L68.6613 6.50982C68.1928 6.00668 67.5307 5.68877 66.7735 5.49298L66.3606 7.08116ZM68.4264 7.80177C68.9711 7.53007 69.778 7.28714 70.884 7.09527L70.6021 5.47887C69.4216 5.68366 68.4385 5.96139 67.6908 6.33429L68.4264 7.80177ZM70.884 7.09527C71.9622 6.90826 73.4013 6.8099 75.2174 6.8099V5.16922C73.3547 5.16922 71.8109 5.26919 70.6021 5.47887L70.884 7.09527ZM75.2174 6.8099H77.0817V5.16922H75.2174V6.8099ZM77.0817 6.8099C78.268 6.8099 79.0721 6.97886 79.5741 7.23847L80.3313 5.78193C79.491 5.34737 78.3812 5.16922 77.0817 5.16922V6.8099ZM79.5741 7.23847C80.138 7.53002 80.4654 7.85785 80.6411 8.19244L82.0983 7.43117C81.727 6.72447 81.1099 6.18455 80.3313 5.78193L79.5741 7.23847ZM80.6556 8.2188C80.901 8.64713 81.0345 9.06763 81.0726 9.48518L82.7107 9.33665C82.6493 8.66334 82.4349 8.01776 82.0837 7.40481L80.6556 8.2188ZM81.0773 9.52694C81.1486 10.0235 81.1809 10.4289 81.1809 10.7497H82.8259C82.8259 10.3268 82.7839 9.8396 82.7058 9.29489L81.0773 9.52694ZM81.1809 10.7497V22.6501H82.8259V10.7497H81.1809ZM82.0034 21.8297H77.4545V23.4704H82.0034V21.8297ZM78.277 22.6501V10.6753H76.632V22.6501H78.277ZM78.277 10.6753C78.277 10.0097 78.0697 9.37498 77.5337 8.92946C77.0263 8.50783 76.3554 8.36744 75.6648 8.36744V10.0081C76.1676 10.0081 76.3913 10.1157 76.4807 10.1899C76.5413 10.2402 76.632 10.3492 76.632 10.6753H78.277ZM75.6648 8.36744H70.4448V10.0081H75.6648V8.36744ZM70.4448 8.36744C70.2158 8.36744 69.9954 8.38142 69.7945 8.41787C69.6017 8.45281 69.3733 8.51759 69.1683 8.65399L70.0807 10.0191C70.0247 10.0563 70.008 10.0467 70.0886 10.0321C70.161 10.0189 70.2762 10.0081 70.4448 10.0081V8.36744ZM69.1683 8.65399C68.6433 9.00302 68.5783 9.62729 68.5783 10.0059H70.2232C70.2232 9.94763 70.2265 9.90473 70.2304 9.87495C70.2342 9.84476 70.2383 9.83404 70.2369 9.83768C70.2348 9.84444 70.2005 9.93957 70.0807 10.0191L69.1683 8.65399ZM68.5783 10.0059V22.6501H70.2232V10.0059H68.5783ZM69.4008 21.8297H64.8519V23.4704H69.4008V21.8297ZM65.6744 22.6501V10.6753H64.0294V22.6501H65.6744ZM65.6744 10.6753C65.6744 10.0097 65.4671 9.37498 64.9311 8.92946C64.4236 8.50783 63.7528 8.36744 63.0622 8.36744V10.0081C63.565 10.0081 63.7887 10.1157 63.8781 10.1899C63.9386 10.2402 64.0294 10.3492 64.0294 10.6753H65.6744ZM63.0622 8.36744H57.9167V10.0081H63.0622V8.36744ZM57.9167 8.36744C57.6562 8.36744 57.4133 8.38079 57.1995 8.41494C57.0026 8.44636 56.7493 8.50704 56.5283 8.65396L57.4408 10.0191C57.398 10.0476 57.3714 10.0547 57.3804 10.0518C57.3876 10.0495 57.412 10.0426 57.4594 10.035C57.5562 10.0195 57.7048 10.0081 57.9167 10.0081V8.36744ZM56.5615 8.6331C56.2364 8.82771 56.1075 9.14236 56.0524 9.34012C55.9929 9.55294 55.9756 9.78482 55.9756 10.0059H57.6206C57.6206 9.93484 57.6236 9.88023 57.628 9.8399C57.6299 9.82002 57.6321 9.80509 57.634 9.79453C57.636 9.78387 57.6373 9.77911 57.6373 9.77922C57.6373 9.77925 57.6354 9.78625 57.6302 9.79847C57.6253 9.81067 57.6159 9.83049 57.6006 9.85499C57.5693 9.90454 57.5096 9.97911 57.4079 10.04L56.5615 8.6331ZM55.9756 10.0059V22.6501H57.6206V10.0059H55.9756ZM56.7981 21.8297H52.2492V23.4704H56.7981V21.8297Z" fill="#120B05"/>
</svg>
