<svg width="311" height="120" viewBox="0 0 311 120" fill="none" xmlns="http://www.w3.org/2000/svg">
<path fill-rule="evenodd" clip-rule="evenodd" d="M275.294 8.70282H215.042C210.265 8.70282 206.435 11.3137 206.435 14.5047V55.1179C206.435 58.3087 210.265 60.9198 215.042 60.9198H275.294C280.028 60.9198 283.901 58.3087 283.901 55.1179V14.5047C283.901 11.3137 280.028 8.70282 275.294 8.70282ZM249.595 23.8182C252.841 23.8182 255.497 22.1693 255.497 20.1539C255.497 18.1385 252.841 16.4896 249.595 16.4896C246.348 16.4896 243.692 18.1385 243.692 20.1539C243.692 22.1693 246.348 23.8182 249.595 23.8182ZM249.595 23.8182C253.588 23.8182 261.399 25.0055 261.399 27.7538V29.3148H237.79V27.7538C237.79 25.0055 245.601 23.8182 249.595 23.8182ZM234.839 30.2309C234.839 32.7501 232.183 34.8113 228.937 34.8113C225.691 34.8113 223.035 32.7501 223.035 30.2309C223.035 27.7116 225.691 25.6504 228.937 25.6504C232.183 25.6504 234.839 27.7116 234.839 30.2309ZM231.888 30.2309C231.888 28.7193 230.56 27.4826 228.937 27.4826C227.314 27.4826 225.986 28.7193 225.986 30.2309C225.986 31.7424 227.314 32.9792 228.937 32.9792C230.56 32.9792 231.888 31.7424 231.888 30.2309ZM240.741 40.0586C240.741 36.3943 232.931 34.8113 228.937 34.8113C224.943 34.8113 217.133 36.3943 217.133 40.0586V42.14H240.741V40.0586ZM228.937 36.6435C225.692 36.6435 221.945 38.439 220.084 40.3078H237.79C235.929 38.439 232.181 36.6435 228.937 36.6435ZM255.497 42.14C260.366 42.14 264.35 39.6666 264.35 36.6435C264.35 33.6204 260.366 31.1469 255.497 31.1469C250.627 31.1469 246.643 33.6204 246.643 36.6435C246.643 39.6666 250.627 42.14 255.497 42.14ZM255.497 42.14C261.487 42.14 273.203 44.1188 273.203 48.6992V51.3009H237.79V48.6992C237.79 44.1188 249.506 42.14 255.497 42.14ZM261.399 36.6435C261.399 34.6281 258.743 32.9792 255.497 32.9792C252.251 32.9792 249.595 34.6281 249.595 36.6435C249.595 38.6589 252.251 40.3078 255.497 40.3078C258.743 40.3078 261.399 38.6589 261.399 36.6435ZM255.497 43.9722C250.089 43.9722 243.843 46.6655 240.741 49.4687H270.252C267.15 46.6655 260.904 43.9722 255.497 43.9722ZM252.546 20.1539C252.546 19.1462 251.218 18.3217 249.595 18.3217C247.971 18.3217 246.643 19.1462 246.643 20.1539C246.643 21.1616 247.971 21.9861 249.595 21.9861C251.218 21.9861 252.546 21.1616 252.546 20.1539ZM249.595 25.6504C246.35 25.6504 242.603 26.5482 240.741 27.4826H258.448C256.586 26.5482 252.839 25.6504 249.595 25.6504ZM215.042 55.1179H275.294V14.5047H215.042V55.1179Z" fill="#F2994A"/>
<path d="M261.399 29.3148V30.1639H262.25V29.3148H261.399ZM237.79 29.3148H236.939V30.1639H237.79V29.3148ZM217.133 42.14H216.281V42.9891H217.133V42.14ZM240.741 42.14V42.9891H241.593V42.14H240.741ZM220.084 40.3078L219.48 39.7095L218.038 41.1569H220.084V40.3078ZM237.79 40.3078V41.1569H239.836L238.394 39.7095L237.79 40.3078ZM273.203 51.3009V52.1499H274.055V51.3009H273.203ZM237.79 51.3009H236.939V52.1499H237.79V51.3009ZM240.741 49.4687L240.17 48.8395L238.534 50.3177H240.741V49.4687ZM270.252 49.4687V50.3177H272.46L270.824 48.8395L270.252 49.4687ZM240.741 27.4826L240.359 26.7242L240.741 28.3316V27.4826ZM258.448 27.4826V28.3316L258.83 26.7242L258.448 27.4826ZM275.294 55.1179V55.967H276.145V55.1179H275.294ZM215.042 55.1179H214.191V55.967H215.042V55.1179ZM275.294 14.5047H276.145V13.6556H275.294V14.5047ZM215.042 14.5047V13.6556H214.191V14.5047H215.042ZM215.042 9.55187H275.293V7.85376H215.042V9.55187ZM207.286 14.5047C207.286 13.2747 208.024 12.0573 209.425 11.1098C210.821 10.1658 212.801 9.55187 215.042 9.55187V7.85376C212.506 7.85376 210.183 8.54529 208.469 9.70442C206.761 10.8602 205.583 12.5437 205.583 14.5047H207.286ZM207.286 55.1179V14.5047H205.583V55.1179H207.286ZM215.042 60.0707C212.801 60.0707 210.821 59.4566 209.425 58.513C208.024 57.5655 207.286 56.3479 207.286 55.1179H205.583C205.583 57.0792 206.761 58.7626 208.469 59.9185C210.183 61.0771 212.506 61.7688 215.042 61.7688V60.0707ZM275.293 60.0707H215.042V61.7688H275.293V60.0707ZM283.05 55.1179C283.05 56.3444 282.305 57.5626 280.896 58.5119C279.494 59.4571 277.512 60.0707 275.293 60.0707V61.7688C277.809 61.7688 280.132 61.0766 281.849 59.919C283.561 58.7655 284.752 57.0826 284.752 55.1179H283.05ZM283.05 14.5047V55.1179H284.752V14.5047H283.05ZM275.293 9.55187C277.512 9.55187 279.494 10.1652 280.896 11.1106C282.305 12.0602 283.05 13.2782 283.05 14.5047H284.752C284.752 12.5402 283.561 10.8572 281.849 9.70363C280.132 8.54585 277.809 7.85376 275.293 7.85376V9.55187ZM254.645 20.1539C254.645 20.7593 254.243 21.4439 253.313 22.0211C252.398 22.5895 251.083 22.9692 249.595 22.9692V24.6673C251.352 24.6673 252.989 24.2225 254.213 23.4626C255.423 22.7115 256.348 21.5639 256.348 20.1539H254.645ZM249.595 17.3386C251.083 17.3386 252.398 17.7184 253.313 18.2868C254.243 18.8639 254.645 19.5485 254.645 20.1539H256.348C256.348 18.7439 255.423 17.5963 254.213 16.8452C252.989 16.0852 251.352 15.6405 249.595 15.6405V17.3386ZM244.544 20.1539C244.544 19.5485 244.947 18.8639 245.876 18.2868C246.792 17.7184 248.106 17.3386 249.595 17.3386V15.6405C247.837 15.6405 246.2 16.0852 244.976 16.8452C243.766 17.5963 242.841 18.7439 242.841 20.1539H244.544ZM249.595 22.9692C248.106 22.9692 246.792 22.5895 245.876 22.0211C244.947 21.4439 244.544 20.7593 244.544 20.1539H242.841C242.841 21.5639 243.766 22.7115 244.976 23.4626C246.2 24.2225 247.837 24.6673 249.595 24.6673V22.9692ZM262.25 27.7538C262.25 26.6202 261.443 25.8081 260.569 25.2604C259.667 24.6959 258.471 24.2633 257.21 23.934C254.678 23.2728 251.654 22.9692 249.595 22.9692V24.6673C251.529 24.6673 254.407 24.9574 256.779 25.5768C257.97 25.8879 258.975 26.2674 259.663 26.6985C260.379 27.1462 260.548 27.5133 260.548 27.7538H262.25ZM262.25 29.3148V27.7538H260.548V29.3148H262.25ZM237.79 30.1639H261.399V28.4657H237.79V30.1639ZM236.939 27.7538V29.3148H238.641V27.7538H236.939ZM249.595 22.9692C247.536 22.9692 244.511 23.2728 241.979 23.934C240.719 24.2633 239.522 24.6959 238.62 25.2604C237.746 25.8081 236.939 26.6202 236.939 27.7538H238.641C238.641 27.5133 238.811 27.1462 239.526 26.6985C240.214 26.2674 241.219 25.8879 242.41 25.5768C244.782 24.9574 247.66 24.6673 249.595 24.6673V22.9692ZM228.937 35.6604C232.442 35.6604 235.69 33.405 235.69 30.2309H233.988C233.988 32.0952 231.924 33.9622 228.937 33.9622V35.6604ZM222.183 30.2309C222.183 33.405 225.432 35.6604 228.937 35.6604V33.9622C225.949 33.9622 223.886 32.0952 223.886 30.2309H222.183ZM228.937 24.8014C225.432 24.8014 222.183 27.0568 222.183 30.2309H223.886C223.886 28.3665 225.949 26.4995 228.937 26.4995V24.8014ZM235.69 30.2309C235.69 27.0568 232.442 24.8014 228.937 24.8014V26.4995C231.924 26.4995 233.988 28.3665 233.988 30.2309H235.69ZM228.937 28.3316C230.146 28.3316 231.037 29.2422 231.037 30.2309H232.739C232.739 28.1965 230.974 26.6335 228.937 26.6335V28.3316ZM226.837 30.2309C226.837 29.2422 227.728 28.3316 228.937 28.3316V26.6335C226.899 26.6335 225.135 28.1965 225.135 30.2309H226.837ZM228.937 32.1301C227.728 32.1301 226.837 31.2196 226.837 30.2309H225.135C225.135 32.2653 226.899 33.8282 228.937 33.8282V32.1301ZM231.037 30.2309C231.037 31.2196 230.146 32.1301 228.937 32.1301V33.8282C230.974 33.8282 232.739 32.2653 232.739 30.2309H231.037ZM228.937 35.6604C230.85 35.6604 233.705 36.0437 236.056 36.8625C237.233 37.2724 238.228 37.7723 238.912 38.3438C239.59 38.9102 239.89 39.4789 239.89 40.0586H241.593C241.593 38.8063 240.916 37.8029 240.005 37.0419C239.1 36.286 237.892 35.703 236.617 35.2593C234.065 34.3704 231.017 33.9622 228.937 33.9622V35.6604ZM217.984 40.0586C217.984 39.4789 218.284 38.9102 218.962 38.3438C219.646 37.7723 220.64 37.2724 221.817 36.8625C224.169 36.0437 227.024 35.6604 228.937 35.6604V33.9622C226.856 33.9622 223.809 34.3704 221.257 35.2593C219.982 35.703 218.774 36.286 217.869 37.0419C216.958 37.8029 216.281 38.8063 216.281 40.0586H217.984ZM217.984 42.14V40.0586H216.281V42.14H217.984ZM240.741 41.291H217.133V42.9891H240.741V41.291ZM239.89 40.0586V42.14H241.593V40.0586H239.89ZM220.687 40.9062C221.525 40.0651 222.83 39.2039 224.331 38.5536C225.83 37.904 227.461 37.4925 228.937 37.4925V35.7944C227.168 35.7944 225.303 36.2807 223.652 36.9961C222.003 37.7107 220.503 38.6818 219.48 39.7095L220.687 40.9062ZM237.79 39.4588H220.084V41.1569H237.79V39.4588ZM228.937 37.4925C230.412 37.4925 232.044 37.904 233.543 38.5536C235.044 39.2039 236.349 40.0651 237.186 40.9062L238.394 39.7095C237.371 38.6818 235.871 37.7107 234.222 36.9961C232.571 36.2807 230.706 35.7944 228.937 35.7944V37.4925ZM263.499 36.6435C263.499 37.7528 262.764 38.8953 261.3 39.8046C259.849 40.7051 257.797 41.291 255.497 41.291V42.9891C258.066 42.9891 260.44 42.3382 262.199 41.2462C263.944 40.163 265.201 38.5573 265.201 36.6435H263.499ZM255.497 31.996C257.797 31.996 259.849 32.5819 261.3 33.4824C262.764 34.3916 263.499 35.5342 263.499 36.6435H265.201C265.201 34.7297 263.944 33.124 262.199 32.0407C260.44 30.9488 258.066 30.2979 255.497 30.2979V31.996ZM247.495 36.6435C247.495 35.5342 248.23 34.3916 249.694 33.4824C251.144 32.5819 253.197 31.996 255.497 31.996V30.2979C252.928 30.2979 250.553 30.9488 248.794 32.0407C247.049 33.124 245.792 34.7297 245.792 36.6435H247.495ZM255.497 41.291C253.197 41.291 251.144 40.7051 249.694 39.8046C248.23 38.8953 247.495 37.7528 247.495 36.6435H245.792C245.792 38.5573 247.049 40.163 248.794 41.2462C250.553 42.3382 252.928 42.9891 255.497 42.9891V41.291ZM274.055 48.6992C274.055 47.15 273.057 45.9443 271.766 45.0457C270.465 44.14 268.713 43.4317 266.835 42.8867C263.069 41.7941 258.561 41.291 255.497 41.291V42.9891C258.423 42.9891 262.768 43.4753 266.358 44.5172C268.158 45.0394 269.709 45.6847 270.792 46.4382C271.885 47.1989 272.352 47.9582 272.352 48.6992H274.055ZM274.055 51.3009V48.6992H272.352V51.3009H274.055ZM237.79 52.1499H273.203V50.4518H237.79V52.1499ZM236.939 48.6992V51.3009H238.641V48.6992H236.939ZM255.497 41.291C252.432 41.291 247.924 41.7941 244.159 42.8867C242.281 43.4317 240.528 44.14 239.227 45.0457C237.936 45.9443 236.939 47.15 236.939 48.6992H238.641C238.641 47.9582 239.109 47.1989 240.202 46.4382C241.284 45.6847 242.835 45.0394 244.635 44.5172C248.225 43.4753 252.571 42.9891 255.497 42.9891V41.291ZM255.497 33.8282C256.985 33.8282 258.3 34.2079 259.215 34.7763C260.145 35.3535 260.548 36.0381 260.548 36.6435H262.25C262.25 35.2335 261.325 34.0859 260.115 33.3347C258.891 32.5748 257.254 32.1301 255.497 32.1301V33.8282ZM250.446 36.6435C250.446 36.0381 250.849 35.3535 251.778 34.7763C252.694 34.2079 254.008 33.8282 255.497 33.8282V32.1301C253.739 32.1301 252.102 32.5748 250.878 33.3347C249.668 34.0859 248.743 35.2335 248.743 36.6435H250.446ZM255.497 39.4588C254.008 39.4588 252.694 39.079 251.778 38.5106C250.849 37.9335 250.446 37.2489 250.446 36.6435H248.743C248.743 38.0535 249.668 39.201 250.878 39.9522C252.102 40.7121 253.739 41.1569 255.497 41.1569V39.4588ZM260.548 36.6435C260.548 37.2489 260.145 37.9335 259.215 38.5106C258.3 39.079 256.985 39.4588 255.497 39.4588V41.1569C257.254 41.1569 258.891 40.7121 260.115 39.9522C261.325 39.201 262.25 38.0535 262.25 36.6435H260.548ZM241.313 50.0979C242.768 48.7831 245.008 47.457 247.565 46.46C250.118 45.4643 252.925 44.8212 255.497 44.8212V43.1231C252.661 43.1231 249.642 43.8267 246.944 44.8785C244.251 45.9289 241.817 47.3511 240.17 48.8395L241.313 50.0979ZM270.252 48.6196H240.741V50.3177H270.252V48.6196ZM255.497 44.8212C258.069 44.8212 260.876 45.4643 263.429 46.46C265.986 47.457 268.226 48.7831 269.681 50.0979L270.824 48.8395C269.177 47.3511 266.743 45.9289 264.049 44.8785C261.352 43.8267 258.332 43.1231 255.497 43.1231V44.8212ZM249.595 19.1708C250.272 19.1708 250.848 19.3444 251.229 19.5808C251.623 19.8258 251.694 20.0523 251.694 20.1539H253.397C253.397 19.2478 252.804 18.5582 252.129 18.1391C251.44 17.7113 250.541 17.4727 249.595 17.4727V19.1708ZM247.495 20.1539C247.495 20.0523 247.566 19.8258 247.96 19.5808C248.341 19.3444 248.917 19.1708 249.595 19.1708V17.4727C248.648 17.4727 247.75 17.7113 247.061 18.1391C246.385 18.5582 245.792 19.2478 245.792 20.1539H247.495ZM249.595 21.137C248.917 21.137 248.341 20.9634 247.96 20.727C247.566 20.482 247.495 20.2555 247.495 20.1539H245.792C245.792 21.06 246.385 21.7496 247.061 22.1687C247.75 22.5965 248.648 22.8351 249.595 22.8351V21.137ZM251.694 20.1539C251.694 20.2555 251.623 20.482 251.229 20.727C250.848 20.9634 250.272 21.137 249.595 21.137V22.8351C250.541 22.8351 251.44 22.5965 252.129 22.1687C252.804 21.7496 253.397 21.06 253.397 20.1539H251.694ZM241.124 28.241C242.847 27.3759 246.46 26.4995 249.595 26.4995V24.8014C246.241 24.8014 242.358 25.7205 240.359 26.7242L241.124 28.241ZM258.448 26.6335H240.741V28.3316H258.448V26.6335ZM249.595 26.4995C252.73 26.4995 256.342 27.3759 258.065 28.241L258.83 26.7242C256.832 25.7205 252.949 24.8014 249.595 24.8014V26.4995ZM275.294 54.2688H215.042V55.967H275.294V54.2688ZM274.443 14.5047V55.1179H276.145V14.5047H274.443ZM215.042 15.3538H275.294V13.6556H215.042V15.3538ZM215.894 55.1179V14.5047H214.191V55.1179H215.894Z" fill="#120B05"/>
<path d="M18.728 104.717L41.3425 59.4521H56.5474L79.0847 104.717H67.1986L62.6449 94.9404H35.0135L29.9967 104.717H18.728ZM37.7921 87.3962H59.7891L49.2151 66.3804H48.4433L37.7921 87.3962ZM90.1394 65.3796C88.2354 65.3796 86.8461 64.9947 85.9716 64.2249C85.0964 63.4551 84.6595 62.1464 84.6595 60.2989C84.6595 58.5028 85.0709 57.2451 85.8944 56.5268C86.7689 55.757 88.1837 55.3721 90.1394 55.3721C92.0945 55.3721 93.5093 55.757 94.3845 56.5268C95.259 57.2451 95.6966 58.5028 95.6966 60.2989C95.6966 62.0949 95.259 63.4036 94.3845 64.2249C93.5093 64.9947 92.0945 65.3796 90.1394 65.3796ZM82.1124 118.266C80.6199 118.266 79.1795 118.137 77.7902 117.881C76.3493 117.675 75.1916 117.393 74.317 117.034C73.3908 116.675 72.9277 116.316 72.9277 115.956L74.4714 111.337C75.0888 111.491 75.9889 111.645 77.1728 111.799C78.3044 112.005 79.5138 112.107 80.8003 112.107C82.1896 112.107 83.2957 111.774 84.1192 111.106C84.9937 110.439 85.4313 109.079 85.4313 107.026V70.2294H94.8475V107.026C94.8475 109.849 94.3073 112.082 93.2267 113.724C92.1972 115.366 90.808 116.521 89.0589 117.188C87.3092 117.906 85.328 118.266 83.1158 118.266H82.1124ZM115.177 104.717C112.655 104.717 110.674 104.384 109.234 103.716C107.844 103.049 106.841 102.202 106.223 101.176C105.658 100.15 105.297 99.0719 105.143 97.9426C105.04 96.8134 104.989 95.7872 104.989 94.8634V70.2294H114.405V95.0174C114.353 96.1466 114.714 96.9419 115.485 97.4038C116.309 97.8657 117.183 98.0966 118.11 98.0966H133.392C134.524 98.0966 135.192 97.9941 135.398 97.7887C135.604 97.5832 135.707 96.9164 135.707 95.7872V70.2294H145.123V104.717H138.794L135.862 103.177C133.803 103.588 131.359 103.947 128.529 104.255C125.751 104.563 122.612 104.717 119.113 104.717H115.177ZM163.774 104.717C161.202 104.717 159.221 104.384 157.831 103.716C156.442 103.049 155.439 102.202 154.821 101.176C154.255 100.15 153.895 99.0719 153.741 97.9426C153.638 96.8134 153.586 95.7872 153.586 94.8634V80.083C153.586 79.3132 153.638 78.3894 153.741 77.3117C153.895 76.1824 154.255 75.0792 154.821 74.0015C155.439 72.9238 156.442 72.0255 157.831 71.3072C159.272 70.5889 161.253 70.2294 163.774 70.2294H167.711C172.444 70.2294 176.252 70.3319 179.134 70.5374C182.067 70.6913 184.305 70.8708 185.849 71.0762V55.9109H195.265V104.717H188.936L185.926 103.177C183.765 103.537 181.166 103.896 178.13 104.255C175.095 104.563 171.595 104.717 167.633 104.717H163.774ZM166.707 98.0966H183.456C184.536 98.0966 185.206 97.9681 185.463 97.7117C185.72 97.4553 185.849 96.8134 185.849 95.7872V77.3887C184.099 77.2862 181.887 77.1832 179.211 77.0807C176.535 76.9268 173.679 76.8498 170.644 76.8498H166.707C164.237 76.8498 163.003 77.876 163.003 79.9291V95.0174C163.003 97.0704 164.237 98.0966 166.707 98.0966ZM215.267 104.717C211.357 104.717 208.527 103.819 206.777 102.023C205.028 100.175 204.153 97.6602 204.153 94.4785C204.153 91.1428 205.053 88.5764 206.854 86.7804C208.706 84.9843 211.511 84.086 215.267 84.086H219.203C223.062 84.086 226.536 84.1885 229.623 84.394C232.71 84.5994 235.257 84.8043 237.264 85.0098V79.9291C237.264 79.4672 237.213 79.0053 237.11 78.5434C237.007 78.03 236.698 77.6196 236.183 77.3117C235.669 77.0038 234.794 76.8498 233.559 76.8498H229.7C224.092 76.8498 219.409 76.9523 215.653 77.1577C211.897 77.3117 209.35 77.4657 208.012 77.6196L207.163 71.7691C207.163 71.0508 209.118 70.6143 213.029 70.4604C216.939 70.3064 223.474 70.2294 232.633 70.2294H236.492C239.065 70.2294 241.046 70.5889 242.435 71.3072C243.824 72.0255 244.802 72.9238 245.368 74.0015C245.986 75.0792 246.346 76.1824 246.449 77.3117C246.603 78.3894 246.68 79.3132 246.68 80.083V104.717H240.351L237.341 103.177C235.18 103.537 232.582 103.896 229.546 104.255C226.51 104.563 223.037 104.717 219.126 104.717H215.267ZM217.274 98.0966H234.949C236.081 98.0966 236.75 97.9941 236.955 97.7887C237.161 97.5832 237.264 96.9419 237.264 95.8642V89.9366H217.274C215.884 89.9366 214.907 90.27 214.341 90.9374C213.827 91.6047 213.569 92.6564 213.569 94.0936C213.569 95.5308 213.878 96.557 214.495 97.1728C215.113 97.7887 216.039 98.0966 217.274 98.0966ZM255.585 104.717V70.2294H261.914L264.846 71.7691C266.185 71.0508 267.625 70.4858 269.169 70.0755C270.712 69.6651 272.668 69.4596 275.035 69.4596C278.791 69.4596 281.827 69.87 284.142 70.6913C286.509 71.5126 288.078 72.1285 288.85 72.5389L286.149 79.2362C285.531 78.9283 284.503 78.5434 283.062 78.0815C281.672 77.5681 280.026 77.1062 278.122 76.6958C276.218 76.2855 274.134 76.08 271.87 76.08H271.021C268.551 76.08 266.93 76.5674 266.159 77.5426C265.438 78.5179 265.053 80.1345 265.001 82.3925V104.717H255.585ZM299.731 88.5509C299.32 86.1391 298.882 83.5987 298.419 80.9298C297.956 78.21 297.519 75.6181 297.107 73.1547C296.747 70.6398 296.438 68.4843 296.181 66.6883C295.924 64.8923 295.795 63.7375 295.795 63.2241C295.795 61.736 295.924 60.6068 296.181 59.837C296.49 59.0672 297.39 58.6823 298.882 58.6823H306.06C307.45 58.6823 308.299 59.0672 308.607 59.837C308.968 60.5553 309.148 61.6845 309.148 63.2241C309.148 63.7885 309.019 64.9692 308.762 66.7653C308.556 68.5104 308.247 70.6398 307.835 73.1547C307.475 75.6181 307.064 78.21 306.6 80.9298C306.137 83.5987 305.7 86.1391 305.288 88.5509H299.731ZM302.433 104.717C300.529 104.717 299.139 104.332 298.265 103.562C297.39 102.792 296.953 101.509 296.953 99.7132C296.953 97.8657 297.364 96.5825 298.188 95.8642C299.062 95.0943 300.478 94.7094 302.433 94.7094C304.388 94.7094 305.803 95.0943 306.678 95.8642C307.552 96.5825 307.99 97.8657 307.99 99.7132C307.99 101.458 307.552 102.741 306.678 103.562C305.803 104.332 304.388 104.717 302.433 104.717Z" fill="#69EDF5"/>
<path d="M18.7281 104.717L17.2043 103.96L15.9775 106.415H18.7281V104.717ZM41.3426 59.4521V57.754H40.2888L39.8188 58.6947L41.3426 59.4521ZM56.5476 59.4521L58.0725 58.697L57.6031 57.754H56.5476V59.4521ZM79.0848 104.717V106.415H81.8311L80.6098 103.962L79.0848 104.717ZM67.1987 104.717L65.6545 105.432L66.1125 106.415H67.1987V104.717ZM62.645 94.9404L64.1892 94.2249L63.7312 93.2422H62.645V94.9404ZM35.0136 94.9404V93.2422H33.9724L33.4981 94.1666L35.0136 94.9404ZM29.9968 104.717V106.415H31.038L31.5123 105.491L29.9968 104.717ZM37.7922 87.3962L36.2727 86.6304L35.0238 89.0943H37.7922V87.3962ZM59.7892 87.3962V89.0943H62.5485L61.3107 86.6343L59.7892 87.3962ZM49.2152 66.3804L50.7369 65.6185L50.2657 64.6823H49.2152V66.3804ZM48.4434 66.3804V64.6823H47.3963L46.9239 65.6145L48.4434 66.3804ZM20.252 105.474L42.8664 60.2094L39.8188 58.6947L17.2043 103.96L20.252 105.474ZM41.3426 61.1502H56.5476V57.754H41.3426V61.1502ZM55.0227 60.2072L77.5599 105.472L80.6098 103.962L58.0725 58.697L55.0227 60.2072ZM79.0848 103.019H67.1987V106.415H79.0848V103.019ZM68.743 104.001L64.1892 94.2249L61.1007 95.6558L65.6545 105.432L68.743 104.001ZM62.645 93.2422H35.0136V96.6385H62.645V93.2422ZM33.4981 94.1666L28.4812 103.943L31.5123 105.491L36.5292 95.7141L33.4981 94.1666ZM29.9968 103.019H18.7281V106.415H29.9968V103.019ZM37.7922 89.0943H59.7892V85.6981H37.7922V89.0943ZM61.3107 86.6343L50.7369 65.6185L47.6935 67.1423L58.2677 88.1581L61.3107 86.6343ZM49.2152 64.6823H48.4434V68.0785H49.2152V64.6823ZM46.9239 65.6145L36.2727 86.6304L39.3117 88.1621L49.9629 67.1462L46.9239 65.6145ZM85.9717 64.2249L84.8451 65.4985L85.9717 64.2249ZM85.8945 56.5268L87.0153 57.8049L87.021 57.8004L85.8945 56.5268ZM94.3846 56.5268L93.258 57.8004L93.2796 57.819L93.3023 57.8377L94.3846 56.5268ZM94.3846 64.2249L95.5111 65.4985L95.5315 65.4804L95.5514 65.4617L94.3846 64.2249ZM77.7903 117.881L78.1002 116.211L78.0656 116.205L78.031 116.2L77.7903 117.881ZM74.3171 117.034L74.9652 115.464L74.9499 115.458L74.934 115.451L74.3171 117.034ZM72.9278 115.956L71.3127 115.419L71.2253 115.681V115.956H72.9278ZM74.4715 111.337L74.8841 109.69L73.3546 109.309L72.8563 110.8L74.4715 111.337ZM77.1729 111.799L77.4771 110.128L77.4351 110.121L77.3931 110.115L77.1729 111.799ZM84.1193 111.106L83.0847 109.758L83.0648 109.773L83.0455 109.789L84.1193 111.106ZM85.4314 70.2294V68.5313H83.7288V70.2294H85.4314ZM94.8477 70.2294H96.5502V68.5313H94.8477V70.2294ZM93.2268 113.724L91.8035 112.792L91.7927 112.808L91.7831 112.824L93.2268 113.724ZM89.059 117.188L88.4506 115.602L88.4307 115.609L88.4109 115.618L89.059 117.188ZM90.1395 63.6815C88.4046 63.6815 87.517 63.3204 87.0982 62.9519L84.8451 65.4985C86.176 66.669 88.0664 67.0777 90.1395 67.0777V63.6815ZM87.0982 62.9519C86.7583 62.653 86.3621 61.9415 86.3621 60.2989H82.957C82.957 62.3519 83.4354 64.2577 84.8451 65.4985L87.0982 62.9519ZM86.3621 60.2989C86.3621 58.6851 86.7429 58.0426 87.0153 57.8049L84.7731 55.2488C83.3991 56.4482 82.957 58.32 82.957 60.2989H86.3621ZM87.021 57.8004C87.433 57.437 88.3393 57.0702 90.1395 57.0702V53.674C88.0289 53.674 86.105 54.0768 84.768 55.2535L87.021 57.8004ZM90.1395 57.0702C91.9397 57.0702 92.8455 57.437 93.258 57.8004L95.5111 55.2535C94.174 54.0768 92.2495 53.674 90.1395 53.674V57.0702ZM93.3023 57.8377C93.6008 58.0828 93.9941 58.7123 93.9941 60.2989H97.3992C97.3992 58.2928 96.9174 56.4077 95.4668 55.216L93.3023 57.8377ZM93.9941 60.2989C93.9941 61.86 93.611 62.619 93.2177 62.9881L95.5514 65.4617C96.9072 64.1887 97.3992 62.3304 97.3992 60.2989H93.9941ZM93.258 62.9519C92.8455 63.3147 91.9397 63.6815 90.1395 63.6815V67.0777C92.2495 67.0777 94.174 66.6747 95.5111 65.4985L93.258 62.9519ZM82.1125 116.568C80.7187 116.568 79.3817 116.448 78.1002 116.211L77.4805 119.551C78.977 119.827 80.5218 119.964 82.1125 119.964V116.568ZM78.031 116.2C76.6638 116.005 75.6593 115.748 74.9652 115.464L73.669 118.604C74.724 119.038 76.035 119.346 77.5497 119.562L78.031 116.2ZM74.934 115.451C74.745 115.378 74.6003 115.313 74.493 115.257C74.3829 115.2 74.3324 115.164 74.3205 115.155C74.3041 115.142 74.3699 115.188 74.4465 115.308C74.5316 115.439 74.6304 115.663 74.6304 115.956H71.2253C71.2253 116.918 71.8427 117.535 72.2298 117.835C72.6509 118.162 73.1741 118.413 73.6997 118.617L74.934 115.451ZM74.543 116.493L76.0866 111.875L72.8563 110.8L71.3127 115.419L74.543 116.493ZM74.0583 112.985C74.7723 113.163 75.7501 113.326 76.9527 113.483L77.3931 110.115C76.2285 109.964 75.4056 109.82 74.8841 109.69L74.0583 112.985ZM76.8681 113.47C78.1115 113.695 79.4236 113.805 80.8004 113.805V110.409C79.6041 110.409 78.498 110.313 77.4771 110.128L76.8681 113.47ZM80.8004 113.805C82.4582 113.805 83.9831 113.405 85.193 112.424L83.0455 109.789C82.6086 110.142 81.9207 110.409 80.8004 110.409V113.805ZM85.1533 112.455C86.7021 111.274 87.1339 109.178 87.1339 107.026H83.7288C83.7288 108.98 83.2856 109.605 83.0847 109.758L85.1533 112.455ZM87.1339 107.026V70.2294H83.7288V107.026H87.1339ZM85.4314 71.9275H94.8477V68.5313H85.4314V71.9275ZM93.1451 70.2294V107.026H96.5502V70.2294H93.1451ZM93.1451 107.026C93.1451 109.656 92.6383 111.523 91.8035 112.792L94.6502 114.655C95.9759 112.64 96.5502 110.042 96.5502 107.026H93.1451ZM91.7831 112.824C90.9426 114.165 89.841 115.071 88.4506 115.602L89.6668 118.774C91.7757 117.97 93.4527 116.567 94.6706 114.624L91.7831 112.824ZM88.4109 115.618C86.8984 116.239 85.1431 116.568 83.1159 116.568V119.964C85.5137 119.964 87.7202 119.574 89.7071 118.758L88.4109 115.618ZM83.1159 116.568H82.1125V119.964H83.1159V116.568ZM109.234 103.716L108.495 105.246L108.506 105.251L108.517 105.256L109.234 103.716ZM106.224 101.176L104.732 101.994L104.747 102.022L104.763 102.05L106.224 101.176ZM105.143 97.9426L103.447 98.0966L103.451 98.1345L103.456 98.1719L105.143 97.9426ZM104.989 70.2294V68.5313H103.286V70.2294H104.989ZM114.405 70.2294H116.107V68.5313H114.405V70.2294ZM114.405 95.0173L116.106 95.0943L116.107 95.0558V95.0173H114.405ZM115.485 97.4038L114.609 98.8602L114.63 98.8721L114.651 98.884L115.485 97.4038ZM135.707 70.2294V68.5313H134.005V70.2294H135.707ZM145.124 70.2294H146.826V68.5313H145.124V70.2294ZM145.124 104.717V106.415H146.826V104.717H145.124ZM138.795 104.717L138.002 106.22L138.374 106.415H138.795V104.717ZM135.862 103.177L136.654 101.675L136.12 101.394L135.528 101.512L135.862 103.177ZM128.529 104.255L128.345 102.567H128.341L128.529 104.255ZM115.177 103.019C112.773 103.019 111.073 102.696 109.95 102.176L108.517 105.256C110.276 106.071 112.537 106.415 115.177 106.415V103.019ZM109.972 102.186C108.798 101.622 108.087 100.973 107.683 100.302L104.763 102.05C105.595 103.431 106.891 104.476 108.495 105.246L109.972 102.186ZM107.716 100.357C107.247 99.5089 106.955 98.6298 106.83 97.7134L103.456 98.1719C103.64 99.5134 104.068 100.79 104.732 101.994L107.716 100.357ZM106.839 97.7887C106.739 96.7002 106.691 95.726 106.691 94.8634H103.286C103.286 95.8483 103.341 96.9272 103.447 98.0966L106.839 97.7887ZM106.691 94.8634V70.2294H103.286V94.8634H106.691ZM104.989 71.9275H114.405V68.5313H104.989V71.9275ZM112.702 70.2294V95.0173H116.107V70.2294H112.702ZM112.704 94.9404C112.633 96.5026 113.155 97.9896 114.609 98.8602L116.361 95.9479C116.272 95.8941 116.074 95.79 116.106 95.0943L112.704 94.9404ZM114.651 98.884C115.724 99.4857 116.885 99.7947 118.11 99.7947V96.3985C117.482 96.3985 116.894 96.2456 116.32 95.9236L114.651 98.884ZM118.11 99.7947H133.392V96.3985H118.11V99.7947ZM133.392 99.7947C133.995 99.7947 134.543 99.7681 135.001 99.6979C135.231 99.6628 135.481 99.6102 135.724 99.5247C135.946 99.4466 136.296 99.2955 136.602 98.9892L134.195 96.5881C134.304 96.4789 134.406 96.4138 134.468 96.3792C134.531 96.3441 134.576 96.3272 134.59 96.3221C134.615 96.3136 134.589 96.3249 134.484 96.3413C134.273 96.3736 133.92 96.3985 133.392 96.3985V99.7947ZM136.602 98.9892C136.909 98.6836 137.061 98.3349 137.139 98.1136C137.225 97.8707 137.278 97.6211 137.313 97.3924C137.383 96.9356 137.41 96.3889 137.41 95.7872H134.005C134.005 96.3147 133.98 96.6656 133.947 96.8762C133.931 96.9815 133.92 97.0075 133.928 96.9832C133.933 96.9685 133.95 96.9232 133.985 96.8604C134.02 96.7987 134.085 96.6973 134.195 96.5881L136.602 98.9892ZM137.41 95.7872V70.2294H134.005V95.7872H137.41ZM135.707 71.9275H145.124V68.5313H135.707V71.9275ZM143.421 70.2294V104.717H146.826V70.2294H143.421ZM145.124 103.019H138.795V106.415H145.124V103.019ZM139.587 103.214L136.654 101.675L135.069 104.68L138.002 106.22L139.587 103.214ZM135.528 101.512C133.533 101.91 131.141 102.263 128.345 102.567L128.714 105.943C131.577 105.632 134.074 105.265 136.195 104.843L135.528 101.512ZM128.341 102.567C125.638 102.867 122.564 103.019 119.113 103.019V106.415C122.66 106.415 125.863 106.259 128.717 105.943L128.341 102.567ZM119.113 103.019H115.177V106.415H119.113V103.019ZM157.831 103.716L158.57 102.186L157.831 103.716ZM154.821 101.176L153.329 101.994L153.345 102.022L153.362 102.05L154.821 101.176ZM153.741 97.9426L152.045 98.0966L152.049 98.1345L152.054 98.1719L153.741 97.9426ZM153.741 77.3117L152.054 77.0824L152.049 77.1164L152.046 77.1509L153.741 77.3117ZM154.821 74.0015L153.343 73.1592L153.328 73.1858L153.313 73.2136L154.821 74.0015ZM157.831 71.3072L157.07 69.7885L157.059 69.7941L157.048 69.7998L157.831 71.3072ZM179.134 70.5373L179.012 72.2309L179.028 72.2321L179.044 72.2332L179.134 70.5373ZM185.849 71.0762L185.624 72.7596L187.551 73.016V71.0762H185.849ZM185.849 55.9109V54.2128H184.146V55.9109H185.849ZM195.265 55.9109H196.967V54.2128H195.265V55.9109ZM195.265 104.717V106.415H196.967V104.717H195.265ZM188.936 104.717L188.159 106.228L188.525 106.415H188.936V104.717ZM185.926 103.177L186.703 101.667L186.202 101.41L185.646 101.502L185.926 103.177ZM178.13 104.255L178.303 105.945L178.317 105.943L178.331 105.941L178.13 104.255ZM185.463 97.7117L184.259 96.5111L185.463 97.7117ZM185.849 77.3887H187.551V75.7874L185.949 75.6934L185.849 77.3887ZM179.211 77.0807L179.113 78.776L179.129 78.7772L179.146 78.7777L179.211 77.0807ZM163.774 103.019C161.308 103.019 159.624 102.692 158.57 102.186L157.093 105.246C158.817 106.074 161.096 106.415 163.774 106.415V103.019ZM158.57 102.186C157.396 101.622 156.685 100.973 156.282 100.302L153.362 102.05C154.192 103.431 155.489 104.476 157.093 105.246L158.57 102.186ZM156.313 100.357C155.845 99.5089 155.553 98.6298 155.428 97.7134L152.054 98.1719C152.237 99.5134 152.666 100.79 153.329 101.994L156.313 100.357ZM155.436 97.7887C155.337 96.7002 155.289 95.726 155.289 94.8634H151.884C151.884 95.8483 151.939 96.9272 152.045 98.0966L155.436 97.7887ZM155.289 94.8634V80.083H151.884V94.8634H155.289ZM155.289 80.083C155.289 79.3834 155.336 78.5168 155.436 77.4724L152.046 77.1509C151.94 78.2621 151.884 79.243 151.884 80.083H155.289ZM155.428 77.5409C155.554 76.62 155.849 75.7047 156.33 74.7894L153.313 73.2136C152.662 74.4538 152.237 75.7455 152.054 77.0824L155.428 77.5409ZM156.3 74.8438C156.717 74.1147 157.442 73.4213 158.615 72.8145L157.048 69.7998C155.442 70.6302 154.16 71.7328 153.343 73.1592L156.3 74.8438ZM158.593 72.8258C159.701 72.2734 161.383 71.9275 163.774 71.9275V68.5313C161.124 68.5313 158.844 68.9038 157.07 69.7885L158.593 72.8258ZM163.774 71.9275H167.711V68.5313H163.774V71.9275ZM167.711 71.9275C172.426 71.9275 176.188 72.03 179.012 72.2309L179.255 68.8438C176.316 68.6343 172.463 68.5313 167.711 68.5313V71.9275ZM179.044 72.2332C181.964 72.3866 184.148 72.5632 185.624 72.7596L186.074 69.3928C184.462 69.1789 182.169 68.996 179.223 68.8415L179.044 72.2332ZM187.551 71.0762V55.9109H184.146V71.0762H187.551ZM185.849 57.609H195.265V54.2128H185.849V57.609ZM193.562 55.9109V104.717H196.967V55.9109H193.562ZM195.265 103.019H188.936V106.415H195.265V103.019ZM189.713 103.206L186.703 101.667L185.149 104.689L188.159 106.228L189.713 103.206ZM185.646 101.502C183.519 101.856 180.949 102.212 177.93 102.569L178.331 105.941C181.384 105.58 184.01 105.217 186.206 104.852L185.646 101.502ZM177.958 102.565C174.994 102.867 171.554 103.019 167.634 103.019V106.415C171.637 106.415 175.196 106.259 178.303 105.945L177.958 102.565ZM167.634 103.019H163.774V106.415H167.634V103.019ZM166.707 99.7947H183.456V96.3985H166.707V99.7947ZM183.456 99.7947C184.05 99.7947 184.606 99.7607 185.09 99.6679C185.509 99.5875 186.165 99.4126 186.666 98.9123L184.259 96.5111C184.399 96.3707 184.521 96.3198 184.538 96.3124C184.56 96.3034 184.537 96.3153 184.447 96.3328C184.261 96.3685 183.943 96.3985 183.456 96.3985V99.7947ZM186.666 98.9123C187.157 98.4232 187.337 97.7915 187.422 97.3709C187.517 96.8972 187.551 96.3566 187.551 95.7872H184.146C184.146 96.2439 184.117 96.5377 184.083 96.7053C184.067 96.7862 184.056 96.8032 184.067 96.7783C184.076 96.7568 184.127 96.6424 184.259 96.5111L186.666 98.9123ZM187.551 95.7872V77.3887H184.146V95.7872H187.551ZM185.949 75.6934C184.184 75.5898 181.958 75.4868 179.276 75.3838L179.146 78.7777C181.815 78.8802 184.015 78.9821 185.749 79.0839L185.949 75.6934ZM179.309 75.3855C176.597 75.2292 173.708 75.1517 170.644 75.1517V78.5479C173.651 78.5479 176.474 78.6243 179.113 78.776L179.309 75.3855ZM170.644 75.1517H166.707V78.5479H170.644V75.1517ZM166.707 75.1517C165.278 75.1517 163.889 75.4421 162.839 76.3149C161.729 77.2375 161.3 78.5513 161.3 79.929H164.705C164.705 79.2543 164.894 79.0285 165.019 78.9243C165.203 78.7704 165.667 78.5479 166.707 78.5479V75.1517ZM161.3 79.929V95.0173H164.705V79.929H161.3ZM161.3 95.0173C161.3 96.3951 161.729 97.7089 162.839 98.6315C163.889 99.5043 165.278 99.7947 166.707 99.7947V96.3985C165.667 96.3985 165.203 96.176 165.019 96.0221C164.894 95.9179 164.705 95.6926 164.705 95.0173H161.3ZM206.777 102.023L205.539 103.189L205.548 103.197L205.556 103.206L206.777 102.023ZM206.854 86.7804L205.668 85.5628L205.659 85.5713L205.651 85.5798L206.854 86.7804ZM229.623 84.3939L229.51 86.0881L229.623 84.3939ZM237.264 85.0098L237.09 86.6989L238.967 86.8907V85.0098H237.264ZM237.11 78.5434L235.441 78.8762L235.444 78.8943L235.448 78.9119L237.11 78.5434ZM236.184 77.3117L235.308 78.7681L236.184 77.3117ZM215.653 77.1577L215.723 78.8547L215.735 78.8541L215.747 78.8536L215.653 77.1577ZM208.012 77.6196L206.327 77.863L206.564 79.4955L208.207 79.3064L208.012 77.6196ZM207.163 71.769H205.46V71.8913L205.478 72.0124L207.163 71.769ZM245.368 74.0015L243.86 74.7894L243.875 74.8172L243.89 74.8438L245.368 74.0015ZM246.449 77.3117L244.754 77.4657L244.758 77.5087L244.764 77.5517L246.449 77.3117ZM246.68 104.717V106.415H248.383V104.717H246.68ZM240.351 104.717L239.574 106.228L239.941 106.415H240.351V104.717ZM237.341 103.177L238.118 101.667L237.617 101.41L237.062 101.502L237.341 103.177ZM229.546 104.255L229.718 105.945L229.733 105.943L229.747 105.941L229.546 104.255ZM237.264 89.9366H238.967V88.2385H237.264V89.9366ZM214.341 90.9374L213.041 89.8404L213.016 89.8709L212.992 89.9021L214.341 90.9374ZM214.495 97.1728L213.292 98.3734L214.495 97.1728ZM215.267 103.019C211.566 103.019 209.287 102.162 207.998 100.84L205.556 103.206C207.767 105.475 211.147 106.415 215.267 106.415V103.019ZM208.015 100.857C206.635 99.3985 205.855 97.3409 205.855 94.4785H202.45C202.45 97.9794 203.421 100.952 205.539 103.189L208.015 100.857ZM205.855 94.4785C205.855 91.4468 206.667 89.3683 208.058 87.9809L205.651 85.5798C203.439 87.7851 202.45 90.8389 202.45 94.4785H205.855ZM208.041 87.9979C209.456 86.6258 211.754 85.7841 215.267 85.7841V82.3879C211.268 82.3879 207.957 83.3428 205.668 85.5628L208.041 87.9979ZM215.267 85.7841H219.203V82.3879H215.267V85.7841ZM219.203 85.7841C223.034 85.7841 226.468 85.886 229.51 86.0881L229.737 82.6998C226.604 82.4915 223.091 82.3879 219.203 82.3879V85.7841ZM229.51 86.0881C232.587 86.293 235.112 86.4968 237.09 86.6989L237.438 83.3207C235.404 83.1124 232.835 82.9058 229.737 82.6998L229.51 86.0881ZM238.967 85.0098V79.929H235.562V85.0098H238.967ZM238.967 79.929C238.967 79.3404 238.901 78.7551 238.772 78.1749L235.448 78.9119C235.525 79.2555 235.562 79.5939 235.562 79.929H238.967ZM238.779 78.2106C238.568 77.1583 237.921 76.3709 237.06 75.8558L235.308 78.7681C235.407 78.8275 235.437 78.8666 235.439 78.8694C235.441 78.8717 235.44 78.8706 235.438 78.8672C235.437 78.8643 235.438 78.8666 235.441 78.8762L238.779 78.2106ZM237.06 75.8558C236.121 75.2938 234.84 75.1517 233.559 75.1517V78.5479C234.113 78.5479 234.535 78.583 234.846 78.6373C234.999 78.6645 235.112 78.6939 235.192 78.7206C235.231 78.7336 235.26 78.7449 235.279 78.754C235.289 78.7579 235.296 78.7619 235.301 78.7641C235.306 78.7664 235.308 78.7681 235.308 78.7681L237.06 75.8558ZM233.559 75.1517H229.7V78.5479H233.559V75.1517ZM229.7 75.1517C224.074 75.1517 219.358 75.2547 215.56 75.4624L215.747 78.8536C219.46 78.6504 224.11 78.5479 229.7 78.5479V75.1517ZM215.583 75.4613C211.834 75.6147 209.226 75.7704 207.817 75.9328L208.207 79.3064C209.473 79.1609 211.96 79.0087 215.723 78.8547L215.583 75.4613ZM209.697 77.3762L208.848 71.5256L205.478 72.0124L206.327 77.863L209.697 77.3762ZM208.865 71.769C208.865 72.0945 208.746 72.36 208.615 72.5338C208.556 72.613 208.499 72.6656 208.463 72.6962C208.426 72.7273 208.401 72.7421 208.397 72.7443C208.393 72.7466 208.434 72.7228 208.545 72.6843C208.653 72.647 208.803 72.6045 209.001 72.5604C209.825 72.3764 211.166 72.2332 213.096 72.1573L212.962 68.7634C210.981 68.8415 209.39 68.9932 208.258 69.2456C207.706 69.369 207.135 69.5428 206.662 69.8219C206.217 70.0851 205.46 70.6964 205.46 71.769H208.865ZM213.096 72.1573C216.97 72.0045 223.475 71.9275 232.633 71.9275V68.5313C223.473 68.5313 216.909 68.6083 212.962 68.7634L213.096 72.1573ZM232.633 71.9275H236.492V68.5313H232.633V71.9275ZM236.492 71.9275C238.948 71.9275 240.612 72.2774 241.652 72.8145L243.219 69.7998C241.48 68.9004 239.183 68.5313 236.492 68.5313V71.9275ZM241.652 72.8145C242.819 73.4185 243.497 74.0966 243.86 74.7894L246.877 73.2136C246.108 71.7509 244.831 70.633 243.219 69.7998L241.652 72.8145ZM243.89 74.8438C244.398 75.7307 244.675 76.6013 244.754 77.4657L248.145 77.1577C248.017 75.7641 247.574 74.4277 246.847 73.1592L243.89 74.8438ZM244.764 77.5517C244.911 78.5796 244.978 79.419 244.978 80.083H248.383C248.383 79.2073 248.296 78.1992 248.134 77.0717L244.764 77.5517ZM244.978 80.083V104.717H248.383V80.083H244.978ZM246.68 103.019H240.351V106.415H246.68V103.019ZM241.128 103.206L238.118 101.667L236.564 104.689L239.574 106.228L241.128 103.206ZM237.062 101.502C234.935 101.856 232.364 102.212 229.346 102.569L229.747 105.941C232.799 105.58 235.426 105.217 237.622 104.852L237.062 101.502ZM229.374 102.565C226.409 102.867 222.994 103.019 219.126 103.019V106.415C223.08 106.415 226.612 106.259 229.718 105.945L229.374 102.565ZM219.126 103.019H215.267V106.415H219.126V103.019ZM217.274 99.7947H234.949V96.3985H217.274V99.7947ZM234.949 99.7947C235.552 99.7947 236.101 99.7681 236.559 99.6979C236.787 99.6628 237.038 99.6102 237.281 99.5247C237.504 99.4466 237.853 99.2955 238.16 98.9892L235.752 96.5881C235.861 96.4789 235.963 96.4138 236.025 96.3792C236.088 96.3441 236.133 96.3272 236.148 96.3221C236.172 96.3136 236.146 96.3249 236.041 96.3413C235.83 96.3736 235.478 96.3985 234.949 96.3985V99.7947ZM238.16 98.9892C238.457 98.6926 238.609 98.3564 238.691 98.1334C238.778 97.8928 238.832 97.6466 238.868 97.4219C238.94 96.9736 238.967 96.4426 238.967 95.8641H235.562C235.562 96.3634 235.537 96.6923 235.506 96.8853C235.491 96.9815 235.48 97.0013 235.491 96.9724C235.495 96.9611 235.557 96.7823 235.752 96.5881L238.16 98.9892ZM238.967 95.8641V89.9366H235.562V95.8641H238.967ZM237.264 88.2385H217.274V91.6347H237.264V88.2385ZM217.274 88.2385C215.675 88.2385 214.08 88.6155 213.041 89.8404L215.641 92.0343C215.734 91.9251 216.095 91.6347 217.274 91.6347V88.2385ZM212.992 89.9021C212.136 91.0121 211.867 92.5211 211.867 94.0936H215.272C215.272 92.7917 215.517 92.1973 215.69 91.9726L212.992 89.9021ZM211.867 94.0936C211.867 95.7028 212.201 97.2855 213.292 98.3734L215.7 95.9722C215.555 95.8285 215.272 95.3581 215.272 94.0936H211.867ZM213.292 98.3734C214.341 99.42 215.777 99.7947 217.274 99.7947V96.3985C216.302 96.3985 215.885 96.1573 215.7 95.9722L213.292 98.3734ZM255.585 104.717H253.882V106.415H255.585V104.717ZM255.585 70.2294V68.5313H253.882V70.2294H255.585ZM261.914 70.2294L262.707 68.7266L262.335 68.5313H261.914V70.2294ZM264.847 71.769L264.054 73.2719L264.856 73.693L265.654 73.264L264.847 71.769ZM269.169 70.0755L269.608 71.7164L269.169 70.0755ZM284.142 70.6913L283.572 72.2915L283.578 72.2932L283.583 72.2955L284.142 70.6913ZM288.85 72.5389L290.43 73.1728L291.001 71.7583L289.652 71.0406L288.85 72.5389ZM286.149 79.2362L285.388 80.7549L287.039 81.579L287.729 79.8702L286.149 79.2362ZM283.062 78.0815L282.47 79.6738L282.506 79.6868L282.541 79.6981L283.062 78.0815ZM278.122 76.6958L278.482 75.0362L278.122 76.6958ZM266.159 77.5426L264.823 76.4904L264.805 76.5124L264.788 76.5351L266.159 77.5426ZM265.001 82.3924L263.299 82.354L263.298 82.3732V82.3924H265.001ZM265.001 104.717V106.415H266.704V104.717H265.001ZM257.287 104.717V70.2294H253.882V104.717H257.287ZM255.585 71.9275H261.914V68.5313H255.585V71.9275ZM261.121 71.7323L264.054 73.2719L265.64 70.2662L262.707 68.7266L261.121 71.7323ZM265.654 73.264C266.869 72.6113 268.185 72.0945 269.608 71.7164L268.73 68.4345C267.065 68.8777 265.5 69.4896 264.04 70.2741L265.654 73.264ZM269.608 71.7164C270.958 71.3575 272.752 71.1577 275.035 71.1577V67.7615C272.584 67.7615 270.468 67.9726 268.73 68.4345L269.608 71.7164ZM275.035 71.1577C278.688 71.1577 281.51 71.5602 283.572 72.2915L284.713 69.0911C282.144 68.1804 278.894 67.7615 275.035 67.7615V71.1577ZM283.583 72.2955C285.967 73.1224 287.412 73.6987 288.05 74.0372L289.652 71.0406C288.745 70.5583 287.052 69.9028 284.702 69.0877L283.583 72.2955ZM287.271 71.9049L284.57 78.6023L287.729 79.8702L290.43 73.1728L287.271 71.9049ZM286.911 77.7175C286.168 77.3473 285.033 76.9296 283.583 76.4649L282.541 79.6981C283.973 80.1572 284.895 80.5092 285.388 80.7549L286.911 77.7175ZM283.653 76.4892C282.169 75.9407 280.441 75.4585 278.482 75.0362L277.762 78.3555C279.611 78.7539 281.176 79.1955 282.47 79.6738L283.653 76.4892ZM278.482 75.0362C276.443 74.5964 274.236 74.3819 271.87 74.3819V77.7781C274.032 77.7781 275.994 77.9745 277.762 78.3555L278.482 75.0362ZM271.87 74.3819H271.021V77.7781H271.87V74.3819ZM271.021 74.3819C268.493 74.3819 266.124 74.8472 264.823 76.4904L267.495 78.5949C267.738 78.2881 268.61 77.7781 271.021 77.7781V74.3819ZM264.788 76.5351C263.746 77.9457 263.352 80.006 263.299 82.354L266.704 82.4309C266.753 80.2624 267.131 79.0896 267.529 78.5502L264.788 76.5351ZM263.298 82.3924V104.717H266.704V82.3924H263.298ZM265.001 103.019H255.585V106.415H265.001V103.019ZM299.731 88.5509L298.053 88.8356L298.294 90.249H299.731V88.5509ZM298.419 80.9298L296.741 81.2139L296.742 81.2196L298.419 80.9298ZM297.107 73.1547L295.422 73.3947L295.424 73.4145L295.428 73.4338L297.107 73.1547ZM296.181 66.6883L294.496 66.9283L296.181 66.6883ZM296.181 59.837L294.6 59.2064L294.582 59.2528L294.566 59.2998L296.181 59.837ZM308.607 59.837L307.027 60.4675L307.053 60.5332L307.085 60.5966L308.607 59.837ZM308.762 66.7653L307.076 66.5253L307.073 66.5462L307.071 66.5672L308.762 66.7653ZM307.836 73.1547L306.155 72.8813L306.153 72.8955L306.151 72.9096L307.836 73.1547ZM306.601 80.9298L308.278 81.2196L308.279 81.2139L306.601 80.9298ZM305.289 88.5509V90.249H306.726L306.967 88.8356L305.289 88.5509ZM298.265 103.562L297.138 104.836L298.265 103.562ZM298.188 95.8641L299.309 97.1423L299.314 97.1377L298.188 95.8641ZM306.678 95.8641L305.551 97.1377L305.573 97.1564L305.596 97.1751L306.678 95.8641ZM306.678 103.562L307.804 104.836L307.825 104.818L307.845 104.799L306.678 103.562ZM301.41 88.2662C300.998 85.8521 300.561 83.3106 300.097 80.64L296.742 81.2196C297.205 83.8868 297.642 86.4255 298.053 88.8356L301.41 88.2662ZM300.098 80.6456C299.635 77.927 299.198 75.3373 298.786 72.8756L295.428 73.4338C295.84 75.8994 296.277 78.4924 296.741 81.2139L300.098 80.6456ZM298.793 72.9147C298.432 70.3998 298.124 68.2443 297.867 66.4483L294.496 66.9283C294.753 68.7249 295.062 70.8804 295.422 73.3947L298.793 72.9147ZM297.867 66.4483C297.604 64.6172 297.498 63.5921 297.498 63.2241H294.093C294.093 63.8824 294.244 65.1668 294.496 66.9283L297.867 66.4483ZM297.498 63.2241C297.498 61.7926 297.626 60.8819 297.796 60.3741L294.566 59.2998C294.221 60.3317 294.093 61.6789 294.093 63.2241H297.498ZM297.762 60.4675C297.719 60.5751 297.644 60.5807 297.759 60.5315C297.916 60.4647 298.258 60.3804 298.882 60.3804V56.9841C297.285 56.9841 295.333 57.3792 294.6 59.2064L297.762 60.4675ZM298.882 60.3804H306.06V56.9841H298.882V60.3804ZM306.06 60.3804C306.621 60.3804 306.913 60.4613 307.035 60.5168C307.086 60.5406 307.089 60.5507 307.071 60.5326C307.05 60.5117 307.034 60.4851 307.027 60.4675L310.189 59.2064C309.472 57.4189 307.629 56.9841 306.06 56.9841V60.3804ZM307.085 60.5966C307.262 60.9492 307.445 61.749 307.445 63.2241H310.85C310.85 61.62 310.674 60.1619 310.13 59.0773L307.085 60.5966ZM307.445 63.2241C307.445 63.6458 307.337 64.7026 307.076 66.5253L310.447 67.0053C310.701 65.2353 310.85 63.9317 310.85 63.2241H307.445ZM307.071 66.5672C306.869 68.2783 306.564 70.3811 306.155 72.8813L309.516 73.4281C309.93 70.8985 310.243 68.7419 310.453 66.964L307.071 66.5672ZM306.151 72.9096C305.793 75.3589 305.383 77.9372 304.922 80.6456L308.279 81.2139C308.744 78.4823 309.158 75.8773 309.521 73.3998L306.151 72.9096ZM304.923 80.64C304.46 83.3106 304.022 85.8521 303.61 88.2662L306.967 88.8356C307.378 86.4255 307.816 83.8868 308.278 81.2196L304.923 80.64ZM305.289 86.8528H299.731V90.249H305.289V86.8528ZM302.433 103.019C300.698 103.019 299.81 102.658 299.391 102.289L297.138 104.836C298.469 106.006 300.36 106.415 302.433 106.415V103.019ZM299.391 102.289C299.043 101.982 298.655 101.286 298.655 99.7132H295.25C295.25 101.733 295.737 103.602 297.138 104.836L299.391 102.289ZM298.655 99.7132C298.655 98.0298 299.045 97.3726 299.309 97.1423L297.067 94.586C295.684 95.7928 295.25 97.7015 295.25 99.7132H298.655ZM299.314 97.1377C299.727 96.7743 300.633 96.4075 302.433 96.4075V93.0113C300.323 93.0113 298.398 93.4143 297.061 94.5911L299.314 97.1377ZM302.433 96.4075C304.233 96.4075 305.139 96.7743 305.551 97.1377L307.804 94.5911C306.467 93.4143 304.543 93.0113 302.433 93.0113V96.4075ZM305.596 97.1751C305.885 97.4128 306.287 98.0564 306.287 99.7132H309.692C309.692 97.6749 309.22 95.7526 307.76 94.5532L305.596 97.1751ZM306.287 99.7132C306.287 101.206 305.913 101.948 305.511 102.325L307.845 104.799C309.192 103.534 309.692 101.711 309.692 99.7132H306.287ZM305.551 102.289C305.139 102.652 304.233 103.019 302.433 103.019V106.415C304.543 106.415 306.467 106.012 307.804 104.836L305.551 102.289Z" fill="#120B05"/>
<path d="M24.5759 46.9811L3.04199 1.79321H13.8475L28.3579 32.9706L30.4418 38.5132H31.1364L33.1432 32.9706L47.8078 1.79321H58.3047L57.0697 6.41208L36.9251 46.9811H24.5759ZM70.0585 46.9811C67.486 46.9811 65.5048 46.6476 64.1155 45.9804C62.7262 45.3132 61.7228 44.4664 61.1054 43.44C60.5395 42.4136 60.1792 41.3359 60.0248 40.2068C59.9221 39.0777 59.8704 38.0513 59.8704 37.1276V22.3472C59.8704 21.5774 59.9221 20.6536 60.0248 19.5759C60.1792 18.4468 60.5395 17.3434 61.1054 16.2657C61.7228 15.1879 62.7262 14.2898 64.1155 13.5713C65.5564 12.8529 67.5376 12.4936 70.0585 12.4936H86.6528C90.0488 12.4936 92.6991 12.8272 94.6026 13.4943C96.5582 14.1102 97.9214 15.1366 98.6932 16.5736C99.5167 18.0106 99.9282 19.9351 99.9282 22.3472V33.7404H86.4212C81.7903 33.7404 78.0083 33.6378 75.0754 33.4325C72.1941 33.2272 70.2645 33.0989 69.2867 33.0476V37.2815C69.2356 39.3344 70.4706 40.3608 72.9915 40.3608H76.9278C79.7063 40.3608 82.4077 40.3351 85.0319 40.2838C87.7078 40.1812 90.1521 40.0785 92.3643 39.9759C94.577 39.8219 96.3522 39.6936 97.6899 39.5909L100.777 44.5947C100.777 46.1857 95.7092 46.9811 85.5722 46.9811H70.0585ZM69.2867 27.12H90.5119V22.1932C90.5119 21.1668 90.3836 20.4483 90.126 20.0377C89.9205 19.6272 89.2514 19.3706 88.1192 19.2679C86.9876 19.1653 85.058 19.114 82.3306 19.114H72.9915C70.5216 19.114 69.2867 20.1404 69.2867 22.1932V27.12ZM108.504 46.9811V12.4936H114.833L116.763 13.4174C118.256 13.1608 120.082 12.9555 122.243 12.8015C124.404 12.5962 126.977 12.4936 129.961 12.4936H133.82C135.313 12.4936 136.753 12.6989 138.143 13.1094C139.532 13.4687 140.561 14.0076 141.23 14.726C142.568 14.0589 144.42 13.52 146.787 13.1094C149.154 12.6989 152.241 12.4936 156.049 12.4936H159.908C162.481 12.4936 164.462 12.8529 165.851 13.5713C167.24 14.2898 168.218 15.1879 168.784 16.2657C169.401 17.3434 169.762 18.4468 169.865 19.5759C170.019 20.6536 170.096 21.5774 170.096 22.3472V46.9811H160.68V22.1932C160.68 20.1404 159.445 19.114 156.975 19.114H146.17C145.347 19.114 144.78 19.2166 144.472 19.4219C144.163 19.6272 144.008 20.0891 144.008 20.8076V46.9811H134.592V22.1932C134.592 20.1404 133.357 19.114 130.887 19.114H120.236C119.259 19.114 118.615 19.2166 118.307 19.4219C118.05 19.5759 117.921 20.0377 117.921 20.8076V46.9811H108.504Z" fill="#2F38F5"/>
<path d="M24.5758 46.9811L23.0382 47.7101L23.5 48.6792H24.5758V46.9811ZM3.04196 1.79321V0.0950928H0.347656L1.50425 2.52217L3.04196 1.79321ZM13.8475 1.79321L15.3918 1.07822L14.9342 0.0950928H13.8475V1.79321ZM28.3578 32.9706L29.9519 32.3743L29.9292 32.314L29.9021 32.2556L28.3578 32.9706ZM30.4417 38.5132L28.8476 39.1095L29.2618 40.2113H30.4417V38.5132ZM31.1364 38.5132V40.2113H32.3317L32.7377 39.0899L31.1364 38.5132ZM33.1431 32.9706L31.6017 32.2493L31.5684 32.3202L31.5417 32.3938L33.1431 32.9706ZM47.8078 1.79321V0.0950928H46.7259L46.2664 1.07198L47.8078 1.79321ZM58.3046 1.79321L59.9499 2.23075L60.5208 0.0950928H58.3046V1.79321ZM57.0697 6.41207L58.5952 7.1657L58.6707 7.0136L58.715 6.84962L57.0697 6.41207ZM36.925 46.9811V48.6792H37.9818L38.4508 47.7348L36.925 46.9811ZM26.1135 46.2522L4.57966 1.06425L1.50425 2.52217L23.0382 47.7101L26.1135 46.2522ZM3.04196 3.49132H13.8475V0.0950928H3.04196V3.49132ZM12.3032 2.50819L26.8135 33.6855L29.9021 32.2556L15.3918 1.07822L12.3032 2.50819ZM26.7636 33.5668L28.8476 39.1095L32.0359 37.9169L29.9519 32.3743L26.7636 33.5668ZM30.4417 40.2113H31.1364V36.8151H30.4417V40.2113ZM32.7377 39.0899L34.7445 33.5473L31.5417 32.3938L29.535 37.9365L32.7377 39.0899ZM34.6845 33.6918L49.3492 2.51443L46.2664 1.07198L31.6017 32.2493L34.6845 33.6918ZM47.8078 3.49132H58.3046V0.0950928H47.8078V3.49132ZM56.6595 1.35567L55.4246 5.97453L58.715 6.84962L59.9499 2.23075L56.6595 1.35567ZM55.544 5.65843L35.3993 46.2275L38.4508 47.7348L58.5952 7.1657L55.544 5.65843ZM36.925 45.283H24.5758V48.6792H36.925V45.283ZM64.1155 45.9804L64.8544 44.4504L64.1155 45.9804ZM61.1053 43.44L59.6139 44.2584L59.6292 44.2863L59.6457 44.3137L61.1053 43.44ZM60.0248 40.2068L58.3296 40.3605L58.333 40.3985L58.3381 40.4362L60.0248 40.2068ZM60.0248 19.5758L58.3381 19.3464L58.3336 19.3806L58.3302 19.4149L60.0248 19.5758ZM61.1053 16.2657L59.6275 15.4232L59.6116 15.4502L59.5975 15.4777L61.1053 16.2657ZM64.1155 13.5713L63.3544 12.0525L63.3431 12.0581L63.3317 12.0638L64.1155 13.5713ZM94.6025 13.4943L94.0384 15.0965L94.064 15.1055L94.0901 15.1136L94.6025 13.4943ZM98.6932 16.5736L97.1927 17.3755L97.2035 17.3959L97.2154 17.4161L98.6932 16.5736ZM99.9281 33.7404V35.4385H101.631V33.7404H99.9281ZM75.0754 33.4325L74.9545 35.1263L74.9562 35.1264L75.0754 33.4325ZM69.2867 33.0475L69.3764 31.3518L67.5841 31.2577V33.0475H69.2867ZM69.2867 37.2815L70.9887 37.324L70.9892 37.3027V37.2815H69.2867ZM85.0319 40.2838L85.0654 41.9815L85.0813 41.9813L85.0978 41.9806L85.0319 40.2838ZM92.3643 39.9758L92.4437 41.6721L92.463 41.6712L92.4829 41.6698L92.3643 39.9758ZM97.6898 39.5909L99.1399 38.701L98.5956 37.8183L97.5593 37.8978L97.6898 39.5909ZM100.777 44.5947H102.48V44.1141L102.227 43.7047L100.777 44.5947ZM69.2867 27.12H67.5841V28.8181H69.2867V27.12ZM90.5119 27.12V28.8181H92.2144V27.12H90.5119ZM90.126 20.0377L88.6033 20.7971L88.6396 20.8693L88.6822 20.9377L90.126 20.0377ZM88.1192 19.2679L87.9654 20.9591L88.1192 19.2679ZM70.0585 45.283C67.5921 45.283 65.9083 44.9566 64.8544 44.4504L63.3771 47.5104C65.1012 48.3385 67.3798 48.6792 70.0585 48.6792V45.283ZM64.8544 44.4504C63.6802 43.8864 62.9691 43.2376 62.5656 42.5663L59.6457 44.3137C60.4765 45.6953 61.7728 46.74 63.3771 47.5104L64.8544 44.4504ZM62.5974 42.6216C62.1292 41.7727 61.8374 40.894 61.712 39.9774L58.3381 40.4362C58.5214 41.7777 58.9499 43.0545 59.6139 44.2584L62.5974 42.6216ZM61.7205 40.0531C61.6212 38.9641 61.573 37.99 61.573 37.1276H58.1679C58.1679 38.1126 58.2229 39.1913 58.3296 40.3605L61.7205 40.0531ZM61.573 37.1276V22.3472H58.1679V37.1276H61.573ZM61.573 22.3472C61.573 21.6478 61.6201 20.7807 61.72 19.7368L58.3302 19.4149C58.2241 20.5265 58.1679 21.5069 58.1679 22.3472H61.573ZM61.712 19.8053C61.838 18.8842 62.1331 17.9688 62.6138 17.0536L59.5975 15.4777C58.9459 16.718 58.5209 18.0094 58.3381 19.3464L61.712 19.8053ZM62.5837 17.1082C63.0014 16.379 63.7262 15.6855 64.8992 15.0788L63.3317 12.0638C61.7262 12.8941 60.4448 13.9968 59.6275 15.4232L62.5837 17.1082ZM64.8771 15.0902C65.9849 14.5377 67.667 14.1917 70.0585 14.1917V10.7955C67.4076 10.7955 65.1279 11.168 63.3544 12.0525L64.8771 15.0902ZM70.0585 14.1917H86.6527V10.7955H70.0585V14.1917ZM86.6527 14.1917C89.9693 14.1917 92.3983 14.5216 94.0384 15.0965L95.1672 11.8922C92.9999 11.1327 90.1288 10.7955 86.6527 10.7955V14.1917ZM94.0901 15.1136C95.7347 15.6318 96.6808 16.4225 97.1927 17.3755L100.194 15.7717C99.1626 13.8508 97.3811 12.5886 95.1156 11.875L94.0901 15.1136ZM97.2154 17.4161C97.8391 18.5054 98.2256 20.1042 98.2256 22.3472H101.631C101.631 19.766 101.194 17.5157 100.172 15.7311L97.2154 17.4161ZM98.2256 22.3472V33.7404H101.631V22.3472H98.2256ZM99.9281 32.0423H86.4212V35.4385H99.9281V32.0423ZM86.4212 32.0423C81.8107 32.0423 78.0724 31.9399 75.1945 31.7385L74.9562 35.1264C77.9447 35.3356 81.7704 35.4385 86.4212 35.4385V32.0423ZM75.1968 31.7386C72.3178 31.5336 70.3724 31.4041 69.3764 31.3518L69.1976 34.7433C70.1567 34.7937 72.0704 34.9208 74.9545 35.1263L75.1968 31.7386ZM67.5841 33.0475V37.2815H70.9892V33.0475H67.5841ZM67.5847 37.2391C67.5501 38.6255 67.9593 39.9603 69.0847 40.8955C70.1397 41.7725 71.5466 42.0589 72.9915 42.0589V38.6626C71.9149 38.6626 71.4444 38.4358 71.2645 38.2864C71.1544 38.1952 70.9722 37.9904 70.9887 37.324L67.5847 37.2391ZM72.9915 42.0589H76.9278V38.6626H72.9915V42.0589ZM76.9278 42.0589C79.7171 42.0589 82.4293 42.0331 85.0654 41.9815L84.999 38.586C82.3861 38.6371 79.6961 38.6626 76.9278 38.6626V42.0589ZM85.0978 41.9806C87.777 41.8779 90.2258 41.775 92.4437 41.6721L92.2854 38.2795C90.0783 38.3819 87.6385 38.4844 84.9667 38.5869L85.0978 41.9806ZM92.4829 41.6698C94.6973 41.5158 96.4771 41.3872 97.8204 41.2841L97.5593 37.8978C96.2273 38 94.4567 38.128 92.2462 38.2819L92.4829 41.6698ZM96.2398 40.4809L99.3271 45.4847L102.227 43.7047L99.1399 38.701L96.2398 40.4809ZM99.0746 44.5947C99.0746 43.9386 99.6115 43.8625 99.1001 44.1032C98.6875 44.2974 97.9276 44.5162 96.7114 44.7071C94.3131 45.0835 90.6203 45.283 85.5722 45.283V48.6792C90.6611 48.6792 94.5708 48.481 97.2409 48.062C98.5587 47.8552 99.6994 47.5767 100.554 47.1744C101.309 46.8185 102.48 46.0464 102.48 44.5947H99.0746ZM85.5722 45.283H70.0585V48.6792H85.5722V45.283ZM69.2867 28.8181H90.5119V25.4219H69.2867V28.8181ZM92.2144 27.12V22.1932H88.8093V27.12H92.2144ZM92.2144 22.1932C92.2144 21.133 92.1015 19.9861 91.5697 19.1377L88.6822 20.9377C88.6527 20.8904 88.6958 20.9395 88.7395 21.1831C88.7809 21.4131 88.8093 21.7432 88.8093 22.1932H92.2144ZM91.6492 19.2783C91.274 18.5311 90.5998 18.1514 90.0811 17.9525C89.5403 17.7449 88.916 17.635 88.2736 17.5768L87.9654 20.9591C88.4546 21.0035 88.731 21.0732 88.8587 21.1223C88.9177 21.1448 88.9024 21.1471 88.8507 21.1076C88.7946 21.0646 88.6884 20.9665 88.6033 20.7971L91.6492 19.2783ZM88.2736 17.5768C87.0568 17.4665 85.058 17.4158 82.3305 17.4158V20.8121C85.0575 20.8121 86.9178 20.8641 87.9654 20.9591L88.2736 17.5768ZM82.3305 17.4158H72.9915V20.8121H82.3305V17.4158ZM72.9915 17.4158C71.5624 17.4158 70.1732 17.7065 69.1232 18.5792C68.0137 19.5015 67.5841 20.8154 67.5841 22.1932H70.9892C70.9892 21.5182 71.1777 21.2925 71.3031 21.1883C71.4881 21.0347 71.9512 20.8121 72.9915 20.8121V17.4158ZM67.5841 22.1932V27.12H70.9892V22.1932H67.5841ZM108.504 46.9811H106.802V48.6792H108.504V46.9811ZM108.504 12.4936V10.7955H106.802V12.4936H108.504ZM114.833 12.4936L115.57 10.9627L115.221 10.7955H114.833V12.4936ZM116.763 13.4174L116.026 14.9483L116.517 15.1829L117.052 15.0908L116.763 13.4174ZM122.243 12.8015L122.364 14.4953L122.384 14.4938L122.405 14.492L122.243 12.8015ZM138.143 13.1094L137.659 14.7376L137.687 14.7458L137.715 14.7532L138.143 13.1094ZM141.23 14.726L139.982 15.8815L140.85 16.8139L141.991 16.2449L141.23 14.726ZM146.787 13.1094L146.495 11.4365L146.787 13.1094ZM168.784 16.2657L167.276 17.0536L167.29 17.0812L167.306 17.1082L168.784 16.2657ZM169.865 19.5758L168.169 19.7296L168.173 19.7729L168.179 19.816L169.865 19.5758ZM170.096 46.9811V48.6792H171.799V46.9811H170.096ZM160.68 46.9811H158.977V48.6792H160.68V46.9811ZM144.008 46.9811V48.6792H145.711V46.9811H144.008ZM134.592 46.9811H132.89V48.6792H134.592V46.9811ZM118.307 19.4219L119.183 20.878L119.218 20.8572L119.251 20.8348L118.307 19.4219ZM117.921 46.9811V48.6792H119.623V46.9811H117.921ZM110.207 46.9811V12.4936H106.802V46.9811H110.207ZM108.504 14.1917H114.833V10.7955H108.504V14.1917ZM114.097 14.0245L116.026 14.9483L117.5 11.8865L115.57 10.9627L114.097 14.0245ZM117.052 15.0908C118.471 14.8468 120.238 14.6468 122.364 14.4953L122.122 11.1077C119.926 11.2642 118.04 11.4747 116.474 11.7439L117.052 15.0908ZM122.405 14.492C124.497 14.2932 127.012 14.1917 129.961 14.1917V10.7955C126.941 10.7955 124.312 10.8992 122.082 11.111L122.405 14.492ZM129.961 14.1917H133.82V10.7955H129.961V14.1917ZM133.82 14.1917C135.154 14.1917 136.431 14.3748 137.659 14.7376L138.627 11.4813C137.076 11.023 135.471 10.7955 133.82 10.7955V14.1917ZM137.715 14.7532C138.927 15.0665 139.614 15.4861 139.982 15.8815L142.478 13.5705C141.508 12.529 140.137 11.8709 138.57 11.4657L137.715 14.7532ZM141.991 16.2449C143.119 15.6825 144.789 15.1796 147.079 14.7824L146.495 11.4365C144.052 11.8604 142.016 12.4353 140.469 13.2072L141.991 16.2449ZM147.079 14.7824C149.311 14.3953 152.29 14.1917 156.049 14.1917V10.7955C152.193 10.7955 148.997 11.0024 146.495 11.4365L147.079 14.7824ZM156.049 14.1917H159.908V10.7955H156.049V14.1917ZM159.908 14.1917C162.364 14.1917 164.028 14.5415 165.067 15.0788L166.635 12.0638C164.895 11.1642 162.598 10.7955 159.908 10.7955V14.1917ZM165.067 15.0788C166.235 15.6824 166.912 16.361 167.276 17.0536L170.292 15.4777C169.524 14.0149 168.247 12.8972 166.635 12.0638L165.067 15.0788ZM167.306 17.1082C167.814 17.9948 168.09 18.8652 168.169 19.7296L171.56 19.4221C171.433 18.0284 170.989 16.692 170.262 15.4232L167.306 17.1082ZM168.179 19.816C168.327 20.8439 168.394 21.683 168.394 22.3472H171.799C171.799 21.4717 171.712 20.4632 171.55 19.3357L168.179 19.816ZM168.394 22.3472V46.9811H171.799V22.3472H168.394ZM170.096 45.283H160.68V48.6792H170.096V45.283ZM162.382 46.9811V22.1932H158.977V46.9811H162.382ZM162.382 22.1932C162.382 20.8154 161.953 19.5015 160.844 18.5792C159.793 17.7065 158.405 17.4158 156.975 17.4158V20.8121C158.016 20.8121 158.479 21.0347 158.664 21.1883C158.789 21.2925 158.977 21.5182 158.977 22.1932H162.382ZM156.975 17.4158H146.17V20.8121H156.975V17.4158ZM146.17 17.4158C145.696 17.4158 145.239 17.4448 144.823 17.5202C144.424 17.5926 143.952 17.7267 143.527 18.009L145.416 20.8348C145.3 20.9118 145.265 20.8919 145.432 20.8617C145.582 20.8345 145.82 20.8121 146.17 20.8121V17.4158ZM143.527 18.009C142.44 18.7315 142.306 20.0238 142.306 20.8075H145.711C145.711 20.6869 145.718 20.5981 145.726 20.5364C145.734 20.4739 145.742 20.4517 145.739 20.4593C145.735 20.4732 145.664 20.6702 145.416 20.8348L143.527 18.009ZM142.306 20.8075V46.9811H145.711V20.8075H142.306ZM144.008 45.283H134.592V48.6792H144.008V45.283ZM136.295 46.9811V22.1932H132.89V46.9811H136.295ZM136.295 22.1932C136.295 20.8154 135.866 19.5015 134.756 18.5792C133.706 17.7065 132.317 17.4158 130.887 17.4158V20.8121C131.928 20.8121 132.391 21.0347 132.576 21.1883C132.702 21.2925 132.89 21.5182 132.89 22.1932H136.295ZM130.887 17.4158H120.236V20.8121H130.887V17.4158ZM120.236 17.4158C119.697 17.4158 119.194 17.4435 118.752 17.5142C118.344 17.5792 117.82 17.7048 117.362 18.0089L119.251 20.8348C119.162 20.8938 119.107 20.9085 119.126 20.9025C119.141 20.8977 119.191 20.8834 119.29 20.8677C119.49 20.8357 119.798 20.8121 120.236 20.8121V17.4158ZM117.431 17.9658C116.758 18.3686 116.491 19.0199 116.377 19.4293C116.254 19.8698 116.218 20.3498 116.218 20.8075H119.623C119.623 20.6604 119.63 20.5473 119.639 20.4639C119.643 20.4227 119.647 20.3918 119.651 20.3699C119.655 20.3479 119.658 20.338 119.658 20.3382C119.658 20.3383 119.654 20.3528 119.643 20.3781C119.633 20.4033 119.614 20.4444 119.582 20.4951C119.517 20.5977 119.393 20.752 119.183 20.878L117.431 17.9658ZM116.218 20.8075V46.9811H119.623V20.8075H116.218ZM117.921 45.283H108.504V48.6792H117.921V45.283Z" fill="#120B05"/>
</svg>
